<?xml version="1.0" standalone="no"?>
<!DOCTYPE svg PUBLIC "-//W3C//DTD SVG 20010904//EN"
 "http://www.w3.org/TR/2001/REC-SVG-20010904/DTD/svg10.dtd">
<svg version="1.0" xmlns="http://www.w3.org/2000/svg"
 width="1026.000000pt" height="1032.000000pt" viewBox="0 0 1026.000000 1032.000000"
 preserveAspectRatio="xMidYMid meet">

<g transform="translate(0.000000,1032.000000) scale(0.100000,-0.100000)"
fill="#000000" stroke="none">
<path d="M0 10295 l0 -25 5130 0 5130 0 0 25 0 25 -5130 0 -5130 0 0 -25z"/>
<path d="M9133 10132 c-40 -12 -84 -62 -54 -62 23 0 41 14 41 31 0 10 5 19 10
19 18 0 60 -48 60 -67 0 -10 9 -26 20 -36 21 -18 27 -37 11 -37 -6 0 -13 5
-17 11 -4 8 -9 7 -15 -2 -6 -10 -12 -9 -28 5 -12 11 -21 25 -21 33 0 7 -4 13
-10 13 -5 0 -10 -4 -10 -9 0 -5 -17 -8 -37 -8 -21 1 -50 -2 -66 -6 -27 -7 -27
-8 -10 -33 14 -22 22 -25 52 -22 20 3 42 7 49 9 21 6 40 -27 25 -42 -10 -10
-17 -8 -33 6 -18 16 -23 17 -30 5 -14 -22 -12 -46 6 -61 14 -11 19 -9 34 11
l19 25 11 -29 c8 -23 13 -26 25 -16 8 7 31 12 52 12 21 0 48 5 61 11 19 9 25
7 38 -11 8 -12 20 -19 27 -16 7 2 29 -4 50 -15 21 -11 45 -17 52 -15 8 4 17
-7 24 -29 8 -22 20 -37 34 -41 80 -21 60 16 -87 163 -131 131 -135 134 -142
107 -6 -27 -6 -27 -21 -6 -8 12 -13 30 -10 41 3 13 -5 27 -25 44 -30 25 -45
28 -85 17z"/>
<path d="M1090 10097 c0 -8 7 -17 15 -21 8 -3 15 -2 15 3 0 5 -7 14 -15 21
-12 10 -15 10 -15 -3z"/>
<path d="M1134 10025 c-4 -9 -4 -27 -1 -41 4 -21 -1 -27 -28 -38 -54 -23 -87
-123 -36 -109 26 7 51 -13 51 -39 0 -17 6 -19 42 -16 25 2 43 -1 45 -9 3 -7
-10 -13 -34 -15 -35 -3 -38 -5 -38 -34 0 -17 -8 -38 -17 -47 -9 -10 -15 -24
-12 -32 4 -9 -7 -30 -25 -50 -35 -40 -37 -48 -17 -64 10 -8 15 -8 18 -1 2 6
42 12 95 14 76 3 93 1 98 -12 3 -8 2 -19 -3 -24 -14 -14 -79 -17 -115 -7 -22
6 -35 5 -46 -5 -23 -20 -79 -25 -92 -9 -8 9 -8 21 0 41 15 35 5 79 -20 93 -16
8 -19 6 -19 -16 0 -15 -6 -25 -15 -25 -10 0 -14 10 -12 38 2 30 8 41 37 59 19
13 37 33 40 45 4 14 13 23 25 23 18 0 21 6 17 35 -3 18 -40 11 -55 -10 -9 -12
-27 -21 -50 -22 -20 -2 -37 -6 -37 -10 0 -5 -7 -8 -15 -8 -8 0 -15 7 -15 15 0
8 -4 15 -10 15 -5 0 -10 -7 -10 -15 0 -8 -9 -15 -20 -15 -11 0 -20 5 -20 11 0
6 -13 1 -29 -10 -16 -12 -34 -21 -40 -21 -16 0 -13 27 5 55 19 28 9 32 -24 9
-15 -11 -22 -25 -22 -50 0 -34 -1 -35 -52 -38 -10 -1 -17 -6 -17 -11 4 -26 13
-35 30 -30 15 5 19 1 19 -20 0 -19 -4 -26 -14 -22 -17 7 -36 -11 -36 -33 0
-11 8 -16 23 -16 16 1 27 -9 40 -36 20 -41 46 -50 54 -18 8 28 30 25 36 -6 7
-37 -15 -54 -57 -44 -40 9 -56 -9 -25 -28 18 -12 27 -61 12 -63 -5 0 -16 -2
-25 -4 -18 -3 -32 35 -23 65 4 12 -1 19 -16 23 -26 7 -39 1 -39 -18 0 -7 -8
-16 -17 -20 -16 -6 -15 -8 7 -25 24 -18 24 -19 7 -54 -9 -20 -21 -36 -27 -36
-5 0 -16 -13 -25 -30 -9 -17 -24 -30 -34 -30 -24 0 -55 -46 -45 -68 7 -16 7
-16 11 0 5 21 41 34 56 19 7 -7 5 -16 -7 -30 -25 -28 -14 -52 50 -110 56 -51
74 -61 74 -40 0 6 6 9 14 6 22 -9 26 30 6 55 -15 19 -20 20 -34 9 -9 -7 -16
-22 -16 -33 0 -10 -4 -16 -10 -13 -5 3 -10 16 -10 28 0 13 -9 30 -20 40 -28
24 -25 40 15 80 19 19 35 44 35 55 0 27 10 52 21 52 5 0 9 -11 9 -24 0 -34 15
-40 46 -19 20 13 29 14 32 5 2 -6 12 -12 22 -12 10 0 22 -9 25 -20 8 -24 12
-24 59 -5 32 13 35 18 30 44 -3 16 -1 37 5 48 9 16 10 15 11 -9 0 -17 8 -31
20 -38 12 -7 20 -21 20 -37 0 -15 8 -35 17 -45 23 -25 4 -45 -27 -28 -11 6
-34 8 -51 5 -17 -4 -40 -1 -58 8 -24 12 -32 12 -52 1 -13 -7 -32 -13 -41 -14
-21 0 -21 3 -7 -40 24 -78 27 -103 16 -121 -12 -20 1 -90 18 -91 6 0 16 10 22
23 8 16 19 23 33 21 17 -3 25 7 22 30 -2 11 27 30 36 24 5 -3 7 -19 4 -37 l-5
-32 44 7 c24 4 48 11 53 17 6 5 18 9 29 9 11 0 22 11 28 29 16 46 52 51 77 11
9 -15 10 -26 2 -40 -14 -26 -13 -50 3 -50 11 0 67 88 67 105 0 3 -13 5 -29 5
-39 0 -46 14 -24 45 22 30 37 32 30 5 -4 -15 3 -27 25 -43 28 -21 68 -87 68
-113 0 -21 -20 -27 -49 -15 -32 14 -81 0 -81 -22 0 -13 -50 -67 -62 -67 -3 0
-3 11 0 25 3 16 0 25 -9 25 -7 0 -20 7 -29 15 -14 13 -20 12 -53 -3 -49 -23
-47 -38 7 -34 59 5 70 -20 22 -49 -26 -15 -35 -28 -38 -54 -3 -31 3 -42 55
-100 68 -75 95 -94 108 -74 6 11 11 11 20 2 9 -9 9 -15 0 -27 -10 -12 22 -49
191 -221 168 -172 202 -211 200 -232 -4 -30 17 -48 71 -63 36 -11 46 -23 28
-35 -16 -9 -91 7 -91 20 0 7 -7 18 -16 26 -13 11 -20 8 -47 -21 -18 -19 -67
-84 -109 -145 -42 -60 -86 -122 -97 -137 -12 -14 -21 -31 -21 -36 0 -6 -15
-31 -34 -55 -19 -25 -42 -60 -51 -78 l-17 -32 28 6 c16 3 37 9 47 12 27 11 22
-27 -8 -55 -19 -18 -31 -22 -59 -17 -43 7 -53 -6 -32 -38 18 -27 8 -38 -26
-30 -18 4 -26 0 -36 -22 -8 -18 -9 -30 -2 -37 16 -16 11 -34 -10 -38 -34 -5
-23 -23 15 -26 26 -2 35 1 35 12 0 9 9 16 20 16 26 0 27 -36 2 -44 -10 -3 -39
-26 -65 -51 -34 -31 -57 -45 -76 -45 -25 0 -32 -7 -60 -71 -20 -44 -29 -78
-25 -88 13 -30 9 -45 -15 -58 -42 -20 -69 -93 -36 -93 8 0 15 -5 15 -11 0 -13
-27 -40 -37 -38 -14 4 -52 -84 -55 -126 -2 -24 -10 -46 -22 -56 -14 -11 -17
-21 -11 -35 7 -17 12 -41 17 -86 3 -20 18 -25 18 -5 1 11 69 -121 70 -134 0
-4 -9 -9 -20 -12 -23 -6 -45 17 -36 39 4 9 -5 29 -23 50 -19 24 -27 43 -23 59
2 15 0 25 -7 25 -6 0 -11 -9 -11 -19 0 -10 -7 -21 -15 -25 -10 -3 -15 -19 -15
-44 0 -23 -6 -45 -15 -52 -8 -7 -12 -16 -9 -21 2 -5 -5 -29 -16 -54 -33 -71
-71 -273 -68 -359 3 -60 0 -78 -15 -94 -32 -35 -57 -332 -56 -667 0 -274 6
-354 49 -680 16 -125 63 -355 79 -390 5 -11 14 -47 21 -80 13 -61 74 -274 90
-310 5 -11 28 -72 51 -135 23 -63 53 -138 66 -167 12 -28 23 -54 23 -58 0 -13
209 -425 221 -435 3 -3 21 -32 39 -65 51 -94 243 -379 280 -415 36 -35 71 -95
68 -115 -2 -16 -65 -87 -187 -210 -157 -158 -182 -187 -171 -200 19 -22 -3
-44 -25 -25 -13 11 -15 9 -15 -13 0 -14 7 -27 15 -31 10 -3 15 -19 15 -48 0
-39 -1 -41 -17 -26 -9 10 -16 31 -16 48 0 26 -4 30 -27 30 -15 0 -35 -9 -45
-20 -21 -24 -28 -71 -12 -83 7 -5 1 -6 -14 -3 -24 5 -27 2 -31 -24 -6 -40 5
-58 26 -41 8 7 14 18 13 23 -1 6 4 13 12 16 9 3 11 0 7 -7 -10 -15 38 -78 65
-86 13 -5 25 -1 32 9 10 14 12 8 9 -29 -4 -41 -2 -46 24 -55 20 -8 35 -8 52 0
27 12 42 6 42 -16 0 -27 -41 -96 -60 -101 -13 -3 -22 -19 -29 -47 -8 -35 -10
-38 -16 -18 -4 12 -11 22 -16 22 -5 0 -9 9 -9 20 0 15 7 20 25 20 18 0 25 5
25 19 0 21 -40 83 -57 89 -16 5 -17 -22 -2 -51 10 -18 8 -24 -16 -44 -30 -27
-49 -19 -66 25 -5 13 -13 21 -18 17 -5 -3 -12 -1 -16 5 -11 18 -51 11 -80 -14
-34 -29 -82 -39 -94 -18 -7 12 -11 11 -23 -7 -14 -20 -16 -20 -22 -4 -10 25
-43 -52 -48 -109 -3 -42 -2 -43 29 -46 46 -5 55 -41 19 -76 -30 -30 -34 -31
-57 -10 -21 19 -39 11 -39 -16 0 -10 -4 -21 -9 -24 -11 -7 -21 17 -21 48 0 14
-14 33 -35 50 -19 16 -35 36 -35 46 0 29 28 50 65 50 39 0 65 29 65 72 0 23
-4 28 -26 28 -19 0 -45 -19 -93 -65 l-66 -65 17 -30 c23 -41 15 -63 -18 -48
-13 6 -24 18 -24 27 0 11 -3 12 -11 4 -14 -14 16 -73 38 -73 14 0 75 -61 96
-97 11 -18 -1 -53 -19 -53 -8 0 -14 -4 -14 -10 0 -5 5 -10 10 -10 6 0 15 -11
21 -24 10 -21 15 -23 34 -14 15 7 21 16 18 31 -6 29 19 62 41 54 23 -9 20 -53
-6 -71 -26 -18 -11 -26 42 -23 35 2 35 2 38 -43 l2 -45 -23 28 c-30 36 -41 34
-65 -11 -12 -23 -26 -37 -38 -37 -25 0 -29 -28 -8 -46 9 -8 20 -13 23 -11 3 1
7 -6 9 -18 2 -11 -1 -20 -7 -20 -6 0 -11 5 -11 12 0 6 -9 3 -20 -7 -28 -26
-25 -32 19 -39 37 -6 40 -8 43 -43 2 -28 9 -41 28 -50 31 -15 38 -9 17 15 -19
21 -23 52 -6 52 6 0 22 -9 36 -20 23 -18 27 -18 49 -3 23 14 24 14 24 -6 0
-11 5 -21 10 -21 6 0 10 7 10 15 0 18 1 18 61 2 25 -7 53 -20 63 -30 22 -22
33 -22 45 2 12 21 5 31 -20 31 -10 0 -19 9 -21 22 -2 12 -16 29 -33 38 -38 21
-46 50 -13 50 45 0 52 13 44 84 l-7 66 28 0 c15 0 40 -7 56 -14 21 -12 40 -13
88 -5 66 11 89 2 89 -32 0 -20 -24 -26 -35 -9 -3 5 -19 7 -34 4 -16 -3 -38 -1
-50 6 -17 9 -26 9 -37 -1 -11 -9 -21 -9 -39 -1 -21 10 -26 8 -36 -10 -10 -19
-7 -25 25 -51 28 -23 35 -34 30 -52 -4 -17 -1 -24 13 -27 14 -2 18 -12 18 -43
0 -38 2 -40 33 -43 17 -2 32 -8 32 -14 0 -6 -10 -8 -24 -4 -14 3 -32 3 -40 0
-20 -8 -21 -34 -1 -34 8 0 15 -6 15 -13 0 -9 -16 -12 -55 -11 -62 2 -66 -5
-38 -63 9 -20 30 -41 48 -50 25 -12 31 -20 27 -39 -5 -27 13 -54 36 -54 8 0
73 57 143 127 116 115 127 129 122 155 -5 26 -4 28 29 28 38 0 89 44 107 93 6
15 18 27 27 27 20 0 212 186 225 218 5 12 14 22 21 22 7 0 119 106 248 235
129 129 242 235 251 235 9 0 33 -13 54 -30 44 -35 52 -36 77 -13 17 15 19 15
36 0 10 -10 21 -17 25 -17 11 0 60 -50 71 -73 6 -12 25 -26 41 -31 32 -9 35
-10 105 -35 41 -15 45 -20 53 -58 8 -41 12 -45 90 -87 172 -92 221 -116 239
-116 26 0 22 27 -7 46 -14 9 -25 26 -25 38 0 13 -11 33 -25 46 -19 18 -25 32
-23 59 3 34 1 36 -29 39 -19 2 -33 -1 -33 -7 0 -6 5 -11 10 -11 6 0 10 -23 10
-52 0 -50 0 -51 -20 -33 -11 10 -20 26 -20 36 0 10 -5 21 -10 24 -7 4 -7 13 0
26 9 15 7 19 -5 19 -22 0 -30 27 -12 45 22 21 10 52 -30 76 -34 21 -34 22 -28
72 7 45 5 52 -15 67 -21 16 -21 18 -5 34 13 13 20 14 31 5 8 -6 14 -17 14 -23
0 -7 14 -25 31 -42 33 -31 71 -102 62 -117 -3 -4 3 -11 14 -13 10 -3 23 -13
28 -23 6 -10 28 -43 51 -72 36 -49 104 -161 104 -174 0 -3 -10 -5 -21 -5 -18
0 -20 -2 -8 -16 7 -8 25 -22 41 -30 15 -8 39 -32 53 -53 17 -29 37 -44 72 -57
26 -9 53 -21 58 -25 18 -13 369 -129 391 -129 11 0 34 -6 50 -14 31 -15 198
-61 274 -75 25 -5 81 -16 125 -24 115 -22 263 -44 395 -59 157 -18 724 -17
895 1 205 21 471 69 645 116 81 21 89 26 62 36 -34 13 -26 29 13 29 19 0 35
-5 35 -11 0 -5 5 -7 10 -4 6 3 10 15 10 26 0 23 13 25 30 4 26 -32 78 -20 344
75 65 23 138 88 149 131 4 14 18 31 32 37 14 6 25 16 25 21 0 25 204 111 222
93 26 -26 -23 -61 -132 -93 -27 -9 -59 -29 -82 -53 -79 -81 -47 -74 185 37
191 92 447 238 447 255 0 2 -15 1 -32 -3 -18 -4 -45 -7 -60 -6 -17 1 -45 -12
-73 -34 -47 -36 -85 -45 -85 -22 0 7 19 24 43 37 23 13 48 30 55 37 7 7 35 13
62 13 42 0 51 4 79 35 17 20 31 44 31 54 0 24 23 43 44 35 27 -10 24 -62 -5
-82 -10 -7 -19 -20 -19 -27 0 -17 77 29 173 103 53 40 56 45 40 57 -15 11 -15
15 -4 29 7 9 21 16 31 16 9 0 114 -97 233 -215 198 -197 218 -214 236 -203 16
10 23 10 33 0 9 -9 8 -15 -7 -26 -18 -13 -16 -17 42 -72 34 -33 70 -66 81 -75
28 -23 72 -13 104 24 34 38 51 27 51 -32 0 -23 2 -41 6 -41 3 0 14 20 24 44
18 42 18 46 1 71 -11 18 -23 25 -36 22 -10 -3 -18 -1 -18 4 0 12 52 58 74 65
16 5 18 13 12 65 -5 54 -4 59 14 59 28 0 104 -45 108 -64 2 -9 -3 -16 -12 -16
-21 0 -106 -42 -106 -52 0 -15 28 -20 49 -8 16 8 26 7 45 -5 40 -26 39 -43 -2
-69 -39 -25 -62 -75 -62 -136 0 -28 2 -29 31 -23 27 5 31 3 27 -13 -2 -11 -13
-20 -26 -22 -16 -2 -22 -10 -22 -27 0 -17 -6 -25 -22 -27 -13 -2 -23 -10 -23
-18 0 -19 81 -38 96 -23 7 7 22 6 47 -2 20 -7 52 -15 71 -17 30 -3 34 0 45 32
14 44 42 49 79 14 27 -25 27 -27 11 -45 -20 -23 -12 -49 17 -49 33 0 17 -24
-24 -35 -20 -5 -49 -22 -64 -38 -16 -15 -36 -27 -45 -27 -20 0 -62 56 -49 64
28 18 -23 66 -69 66 -47 0 -30 -50 42 -126 54 -57 72 -63 104 -39 24 18 31 18
38 0 3 -8 -4 -24 -16 -35 -12 -11 -18 -23 -14 -27 10 -11 76 28 76 45 0 22 91
102 116 102 15 0 24 -8 28 -25 7 -26 26 -35 26 -12 0 8 9 22 20 32 13 12 17
25 14 45 -4 15 -1 31 5 34 6 4 8 20 4 36 -7 38 10 59 42 52 30 -5 32 -18 4
-32 -26 -14 -21 -30 17 -50 16 -9 33 -26 39 -38 6 -13 19 -22 32 -22 18 0 23
6 23 26 0 19 4 25 18 22 9 -2 17 -10 17 -19 0 -15 27 -49 39 -49 3 0 6 15 6
34 0 38 14 52 46 48 24 -3 54 21 54 44 0 19 -7 18 -32 -6 -36 -33 -55 5 -21
42 15 16 15 22 4 40 -10 17 -10 22 0 29 10 6 10 11 0 22 -7 9 -8 18 -3 21 5 3
12 21 15 41 3 19 15 47 26 61 23 29 20 44 -10 44 -12 0 -19 -7 -19 -20 0 -15
-7 -20 -25 -20 -18 0 -28 -9 -41 -35 -9 -20 -21 -38 -26 -41 -14 -9 -28 16
-28 49 0 23 -3 27 -19 22 -42 -13 -34 46 10 74 16 9 24 9 35 0 11 -9 16 -6 23
13 8 21 14 24 44 20 35 -4 36 -3 39 34 5 56 28 57 28 0 0 -34 4 -46 15 -46 8
0 15 7 15 15 0 8 5 15 10 15 6 0 10 -25 10 -55 0 -46 3 -55 18 -55 27 0 81 37
94 65 8 18 19 25 38 25 31 0 64 22 59 38 -2 6 -62 70 -133 142 -110 111 -133
130 -153 125 -20 -5 -23 -2 -23 24 0 31 -56 95 -97 112 -13 5 -23 15 -23 22 0
14 -201 219 -221 226 -6 2 -13 -6 -16 -18 -3 -12 -13 -21 -24 -21 -11 0 -22 0
-26 -1 -20 -2 -11 22 11 31 14 5 26 17 26 27 0 16 -111 135 -220 236 -132 123
-240 242 -240 264 0 11 27 56 61 101 41 55 59 88 57 104 -2 17 2 24 19 26 14
2 40 32 79 90 119 181 164 260 275 481 97 194 144 310 132 322 -10 10 -103
-68 -103 -86 0 -8 -5 -17 -11 -21 -8 -5 -9 6 -4 35 5 32 19 54 56 91 27 27 49
58 49 70 0 11 5 20 10 20 6 0 10 8 10 18 0 9 10 28 23 42 71 79 89 110 83 144
-5 26 -1 40 23 73 16 21 36 64 44 94 53 182 90 350 113 514 8 55 22 154 31
220 13 94 17 199 17 480 1 357 -6 461 -40 664 -8 46 -14 88 -14 92 0 5 -22 -7
-49 -26 -85 -61 -100 -35 -21 37 41 38 50 51 50 79 -1 63 -93 441 -116 474 -8
11 -14 29 -14 40 0 11 -14 58 -30 105 -27 80 -29 83 -39 57 -14 -36 -31 -34
-31 3 0 22 5 30 18 31 9 0 4 5 -13 11 -41 14 -41 15 -20 38 17 19 18 26 6 67
-14 53 -58 156 -134 316 -43 89 -55 107 -74 107 -14 0 -30 11 -40 27 -10 16
-28 37 -40 48 -26 24 -75 156 -77 205 -1 33 -40 110 -78 155 -9 11 -25 31 -35
43 -15 20 -31 25 -84 29 -81 7 -94 -9 -51 -60 93 -109 114 -179 85 -287 -8
-30 -18 -74 -23 -98 -8 -50 -20 -65 -43 -56 -22 8 -23 62 -2 70 11 5 15 21 15
61 0 45 4 58 23 73 20 17 21 21 8 42 -8 13 -36 61 -61 108 -34 61 -52 85 -66
85 -12 0 -25 13 -35 35 -18 39 -15 54 8 46 22 -9 43 12 43 40 0 27 21 32 40 9
7 -8 25 -15 41 -15 20 0 29 -5 29 -16 0 -8 5 -12 11 -8 8 4 8 9 0 17 -6 6 -11
17 -11 25 0 13 -46 81 -65 94 -5 4 -17 0 -26 -8 -8 -7 -23 -14 -32 -14 -26 0
-20 25 9 39 l26 11 -21 36 c-12 19 -21 40 -21 46 0 6 109 121 243 255 249 251
277 288 222 295 -33 4 -33 22 0 26 20 3 28 -2 32 -17 3 -12 11 -21 17 -21 19
0 216 201 222 227 4 12 13 23 20 23 8 0 35 19 59 41 34 31 45 49 45 71 0 27 3
29 24 24 20 -5 42 13 152 124 71 71 130 134 132 139 2 5 -7 19 -19 30 -17 15
-26 18 -35 10 -17 -14 -29 -6 -44 30 -13 31 -68 65 -98 59 -12 -2 -16 -11 -14
-31 3 -21 -2 -29 -22 -37 -26 -9 -28 -13 -30 -60 -2 -39 -21 -35 -24 5 -3 33
-5 35 -41 35 -31 0 -40 4 -44 22 -5 17 -9 19 -20 9 -20 -16 -40 -6 -60 28 -24
41 -22 54 7 47 23 -6 25 -3 28 31 2 27 8 39 21 41 9 2 17 -2 17 -9 0 -6 10
-27 21 -46 15 -25 25 -31 32 -24 19 19 29 12 23 -14 -6 -22 -3 -25 18 -25 35
0 42 18 17 44 -26 28 -56 163 -40 182 8 10 6 21 -7 42 -9 17 -14 37 -10 47 5
15 10 13 38 -15 l31 -33 -7 29 c-9 34 -22 44 -57 44 -28 0 -39 16 -39 56 0 13
-3 24 -7 24 -15 0 -41 -33 -36 -46 3 -9 -2 -14 -16 -14 -14 0 -21 6 -21 19 0
31 -38 33 -53 3 -6 -15 -25 -33 -40 -40 -32 -16 -35 -37 -6 -53 26 -13 15 -27
-26 -31 -29 -3 -30 -2 -30 42 0 25 -4 51 -8 58 -5 7 -6 23 -3 36 4 17 -2 28
-24 45 l-30 22 -10 -28 c-23 -61 -21 -59 -30 -37 -4 11 -32 42 -61 68 -29 26
-58 57 -63 69 -6 11 -23 24 -38 28 -34 9 -34 5 -7 -22 28 -28 11 -48 -26 -31
-14 7 -30 12 -36 12 -5 0 -37 -28 -69 -61 -45 -46 -60 -69 -60 -90 0 -32 10
-35 58 -18 34 12 48 35 32 54 -13 16 24 65 50 65 9 0 31 -13 46 -29 16 -16 44
-33 63 -38 42 -11 53 -33 17 -33 -19 0 -26 -5 -26 -20 0 -11 5 -20 10 -20 6 0
10 -8 10 -18 0 -23 -40 -62 -63 -62 -19 0 -37 29 -37 59 0 25 -6 25 -83 7 -32
-7 -77 -11 -100 -9 -28 3 -49 0 -62 -10 -20 -15 -19 -16 8 -26 18 -7 27 -18
27 -33 0 -16 9 -27 30 -36 37 -17 29 -36 -11 -28 -27 5 -29 3 -29 -27 0 -49
25 -111 50 -123 40 -21 45 -31 30 -60 -13 -23 -18 -25 -57 -19 -42 6 -50 1
-35 -21 9 -15 67 -44 87 -44 29 0 15 -25 -30 -53 -25 -15 -52 -27 -60 -27 -20
0 -19 -43 2 -83 9 -18 16 -36 15 -40 -5 -17 20 -48 34 -43 20 8 54 -11 54 -29
0 -10 -10 -15 -29 -15 -64 0 -85 11 -108 53 -12 23 -26 41 -31 40 -20 -5 -22
46 -3 79 26 45 35 97 21 133 -6 16 -14 32 -18 35 -4 3 -20 23 -36 45 -57 77
-78 94 -119 95 -48 0 -97 -43 -97 -87 0 -34 -56 -107 -76 -99 -9 3 -14 -1 -14
-12 0 -15 -2 -15 -10 -2 -6 10 -10 11 -10 3 0 -7 -10 -13 -21 -13 -24 0 -67
-43 -75 -77 -3 -12 -22 -29 -42 -39 -21 -9 -90 -70 -155 -135 -65 -66 -126
-119 -135 -119 -9 0 -28 10 -42 21 -113 92 -580 379 -616 379 -2 0 -9 -11 -14
-25 -10 -26 -30 -34 -30 -12 0 7 5 18 11 24 16 16 4 30 -43 54 -49 25 -65 12
-41 -35 14 -27 14 -31 -3 -43 -16 -12 -21 -11 -36 9 -10 13 -18 40 -18 61 0
28 -7 44 -26 62 -15 14 -32 25 -38 25 -5 0 -47 16 -92 35 -99 43 -373 139
-456 161 -56 14 -62 14 -79 -2 -17 -16 -19 -16 -19 -1 0 22 -43 49 -64 41 -9
-3 -23 -1 -31 6 -15 12 -39 19 -165 46 -158 33 -367 65 -386 57 -7 -2 -20 -27
-29 -53 -19 -56 -35 -72 -71 -72 -14 0 -28 -7 -31 -14 -7 -18 -54 -18 -78 0
-30 21 -12 41 74 81 126 59 116 69 -83 84 -90 7 -169 10 -176 6 -8 -5 0 -14
21 -27 38 -23 28 -41 -22 -36 -26 2 -35 8 -37 26 -2 12 1 22 7 22 6 0 11 5 11
10 0 13 -225 13 -251 0 -13 -7 -25 -7 -38 0 -27 14 -354 -13 -548 -45 -155
-25 -309 -56 -398 -80 -223 -60 -239 -66 -243 -90 -7 -48 -13 -65 -23 -65 -7
0 -9 9 -6 23 4 12 2 29 -3 37 -8 12 -16 12 -62 -4 -66 -24 -108 -44 -108 -54
0 -4 13 -14 29 -23 15 -9 31 -29 35 -44 4 -15 14 -34 22 -42 8 -8 26 -30 40
-49 15 -19 35 -34 45 -34 23 0 24 7 4 26 -16 17 -21 54 -6 54 11 0 61 -65 61
-81 0 -8 11 -10 34 -6 43 7 63 -11 46 -42 -13 -25 -38 -27 -47 -5 -4 10 -13
13 -32 9 -20 -4 -32 0 -46 15 l-18 20 -24 -22 -23 -21 -22 20 c-13 11 -34 24
-46 28 -21 6 -23 11 -17 42 3 19 8 40 11 46 6 17 -74 63 -124 71 -33 5 -59 0
-125 -26 -100 -38 -174 -82 -182 -109 -5 -15 -16 -19 -56 -19 -37 0 -61 -7
-97 -30 -27 -16 -56 -30 -65 -30 -9 0 -22 -9 -30 -21 -8 -11 -32 -27 -54 -34
-28 -10 -39 -19 -41 -37 -6 -53 -14 -69 -37 -78 -14 -5 -25 -14 -25 -20 0 -5
-7 -10 -15 -10 -18 0 -20 27 -3 32 17 6 0 28 -21 28 -10 0 -30 -9 -44 -20 -14
-11 -27 -20 -30 -20 -2 0 -39 -24 -81 -52 -43 -29 -98 -66 -122 -82 l-45 -30
-262 262 c-229 229 -265 261 -279 250 -9 -7 -18 -22 -20 -32 -1 -11 -9 -21
-15 -24 -22 -7 -15 47 7 60 11 7 20 17 20 23 0 17 -203 213 -225 217 -11 2
-21 12 -23 24 -4 28 -75 96 -104 99 -13 1 -27 3 -32 4 -4 0 -6 11 -2 24 4 19
-15 43 -122 150 -127 126 -164 149 -178 112z m96 -60 c16 -19 4 -35 -26 -35
-21 0 -24 -4 -22 -26 2 -20 -3 -28 -30 -39 -29 -13 -34 -13 -39 1 -6 17 21 51
48 59 11 4 19 14 19 24 0 33 28 42 50 16z m61 -101 c10 -13 10 -17 -2 -25 -22
-14 -66 -11 -73 6 -11 30 52 46 75 19z m39 -124 c6 -11 8 -25 5 -30 -10 -16
-61 -12 -76 6 -11 14 -10 18 6 30 27 20 53 17 65 -6z m7836 -25 c7 -18 -12
-45 -32 -45 -7 0 -20 8 -29 17 -16 16 -16 17 1 30 24 17 53 17 60 -2z m-7689
-31 c-9 -9 -28 6 -21 18 4 6 10 6 17 -1 6 -6 8 -13 4 -17z m3883 -29 c0 -15
-6 -25 -14 -25 -28 0 -46 12 -46 31 0 14 7 19 30 19 25 0 30 -4 30 -25z
m-3980 5 c0 -5 -4 -10 -10 -10 -5 0 -10 5 -10 10 0 6 5 10 10 10 6 0 10 -4 10
-10z m-466 -38 c-1 -7 -2 -21 -2 -32 -3 -32 -32 -24 -32 8 0 16 3 32 7 36 10
9 28 1 27 -12z m3402 -7 c4 -8 3 -23 -1 -32 -6 -17 -7 -17 -21 1 -8 11 -14 26
-14 33 0 18 29 16 36 -2z m-249 -61 c8 -21 -13 -42 -28 -27 -13 13 -5 43 11
43 6 0 13 -7 17 -16z m4871 4 c5 -7 12 -22 14 -33 2 -15 10 -19 31 -17 47 6
31 -23 -33 -55 -33 -16 -62 -28 -65 -25 -5 5 3 106 11 130 2 6 10 12 17 12 8
0 19 -6 25 -12z m77 2 c-3 -5 -17 -10 -31 -10 -13 0 -24 5 -24 10 0 6 14 10
31 10 17 0 28 -4 24 -10z m-4655 -20 c0 -11 -7 -20 -15 -20 -8 0 -15 9 -15 20
0 11 7 20 15 20 8 0 15 -9 15 -20z m5008 2 c15 -10 4 -45 -12 -37 -6 3 -19 8
-28 11 -10 4 -18 10 -18 13 0 21 34 28 58 13z m-3420 -19 c-5 -25 -28 -28 -28
-4 0 12 6 21 16 21 9 0 14 -7 12 -17z m2852 -4 c0 -11 5 -29 11 -41 15 -29 2
-35 -23 -11 -15 16 -19 28 -14 47 8 31 26 35 26 5z m-7199 -4 c0 -10 -62 -27
-70 -20 -2 2 -1 11 2 18 6 17 67 18 68 2z m4449 -25 c0 -27 -31 -48 -65 -43
-58 7 -61 12 -30 39 56 46 95 48 95 4z m-2230 6 c0 -13 7 -29 15 -36 12 -10
15 -29 13 -74 -3 -66 -22 -80 -25 -18 -3 51 -14 101 -23 107 -10 6 -1 45 11
45 5 0 9 -11 9 -24z m-2416 -31 c-6 -36 10 -50 21 -17 3 9 24 25 46 36 36 16
43 17 55 4 13 -13 12 -18 -10 -39 -25 -25 -38 -33 -111 -64 -22 -10 -49 -26
-60 -36 -24 -21 -105 -52 -114 -43 -3 3 2 11 11 18 9 7 20 25 24 40 5 20 14
29 37 33 16 3 32 14 34 23 3 10 16 23 30 29 14 7 23 15 19 18 -5 6 11 33 21
33 2 0 1 -16 -3 -35z m7736 -50 c0 -16 -6 -25 -15 -25 -9 0 -15 9 -15 25 0 16
6 25 15 25 9 0 15 -9 15 -25z m-330 -6 c0 -6 -4 -7 -10 -4 -5 3 -10 11 -10 16
0 6 5 7 10 4 6 -3 10 -11 10 -16z m-7779 -15 c7 -8 9 -17 6 -21 -4 -3 -2 -12
4 -19 9 -11 14 -11 26 1 30 31 70 3 43 -30 -18 -21 -36 -19 -64 10 -14 14 -34
25 -45 25 -20 0 -37 32 -27 49 8 12 42 3 57 -15z m7729 5 c0 -5 -7 -9 -15 -9
-15 0 -20 12 -9 23 8 8 24 -1 24 -14z m519 -3 l24 -13 -22 -12 c-15 -9 -19
-16 -13 -24 5 -7 10 -38 10 -70 0 -32 3 -76 7 -97 7 -39 6 -40 -17 -31 -27 10
-35 55 -19 103 9 24 8 36 -2 52 -16 24 -29 91 -20 100 9 9 26 7 52 -8z m-309
-16 c14 -11 33 -20 43 -20 22 0 34 -27 19 -42 -14 -14 -62 8 -62 28 0 6 -9 14
-20 17 -11 3 -20 12 -20 21 0 21 9 20 40 -4z m-7725 -10 c3 -5 1 -10 -4 -10
-6 0 -11 5 -11 10 0 6 2 10 4 10 3 0 8 -4 11 -10z m-565 -30 c0 -11 -4 -20
-10 -20 -5 0 -10 9 -10 20 0 11 5 20 10 20 6 0 10 -9 10 -20z m5270 2 c0 -25
-19 -42 -47 -42 -17 0 -23 6 -23 23 0 31 7 37 42 37 20 0 28 -5 28 -18z m2910
14 c0 -3 -4 -8 -10 -11 -5 -3 -10 -1 -10 4 0 6 5 11 10 11 6 0 10 -2 10 -4z
m232 -13 c21 -19 24 -43 6 -43 -23 1 -51 29 -45 45 8 19 16 19 39 -2z m-5657
-8 c22 -8 42 -20 44 -26 2 -6 12 -20 22 -30 17 -17 27 -59 13 -59 -3 0 -35 16
-73 35 -37 19 -82 35 -99 35 -36 0 -51 22 -32 45 16 19 72 19 125 0z m5467
-41 c4 -16 5 -37 2 -46 -3 -12 0 -18 10 -18 8 0 18 -4 21 -10 4 -6 -7 -10 -27
-10 -29 0 -35 5 -51 41 -17 39 -17 42 -1 60 23 25 36 20 46 -17z m757 -16 c18
-31 16 -35 -19 -40 -18 -2 -25 2 -25 14 0 9 -4 20 -8 24 -4 4 -7 14 -7 21 0
24 43 10 59 -19z m-79 1 c0 -5 -4 -9 -10 -9 -5 0 -10 7 -10 16 0 8 5 12 10 9
6 -3 10 -10 10 -16z m-8475 -19 c-8 -16 -21 -29 -27 -27 -7 1 -14 -8 -16 -20
-2 -15 -10 -23 -23 -23 -24 0 -24 6 1 37 11 14 20 34 20 44 0 14 7 19 30 19
l31 0 -16 -30z m7699 14 c24 -23 19 -34 -12 -34 -35 0 -41 6 -35 31 6 23 26
25 47 3z m203 0 c9 -25 -13 -40 -26 -16 -10 19 -6 32 11 32 5 0 11 -7 15 -16z
m-8127 -35 c0 -10 -4 -20 -9 -23 -15 -9 -33 22 -26 44 5 17 10 19 21 9 8 -6
14 -20 14 -30z m4730 -10 c0 -19 -5 -29 -15 -29 -17 0 -30 42 -21 66 10 25 36
-2 36 -37z m2900 21 c0 -18 -22 -22 -37 -7 -21 21 -8 40 18 27 10 -6 19 -15
19 -20z m-7191 -7 c15 -33 2 -49 -27 -34 -11 6 -30 11 -41 11 -30 0 -25 13 12
31 44 22 42 22 56 -8z m2591 2 c11 -28 1 -64 -24 -84 -23 -19 -41 -3 -20 20
12 13 15 27 10 54 -6 28 -4 35 9 35 8 0 20 -11 25 -25z m-2740 0 c-14 -16 -50
-21 -50 -6 0 11 18 19 44 20 15 1 16 -2 6 -14z m4657 7 c13 -8 -17 -52 -36
-52 -15 0 -14 33 1 48 14 14 19 14 35 4z m-4329 -63 c2 -30 4 -65 5 -79 1 -14
-2 -26 -8 -27 -5 -1 -9 10 -8 24 2 22 -1 24 -25 18 -15 -3 -33 -13 -39 -22
-12 -15 -13 -15 -13 -1 0 19 26 48 42 48 6 0 8 13 4 36 -5 22 -3 41 5 50 21
25 33 9 37 -47z m8227 40 c7 -10 -21 -49 -36 -49 -11 0 -22 38 -14 50 8 13 42
13 50 -1z m-8058 -23 c-4 -9 3 -12 21 -9 26 4 26 4 8 -11 -19 -15 -19 -16 -1
-36 19 -21 19 -22 -13 -46 -18 -14 -32 -32 -32 -41 0 -12 -7 -14 -32 -9 -17 3
-33 8 -35 10 -3 2 12 25 31 51 35 45 51 84 24 57 -17 -17 -38 -15 -38 3 0 8 7
15 15 15 8 0 19 9 25 20 11 21 35 17 27 -4z m1458 -55 c-7 -6 -22 64 -16 74 3
6 9 -8 12 -30 4 -22 5 -42 4 -44z m5442 66 c-2 -7 -9 -12 -15 -11 -7 1 -24 2
-38 3 -37 2 -22 16 21 18 24 1 35 -2 32 -10z m-5144 -17 c12 -17 12 -27 2 -58
-14 -38 -26 -48 -51 -38 -12 5 -13 10 -2 28 6 13 11 33 9 45 -5 44 18 56 42
23z m-2169 -6 c8 -22 7 -34 -3 -34 -5 0 -11 11 -13 25 -6 28 6 34 16 9z m8363
-4 c16 -25 1 -72 -21 -64 -20 8 -30 53 -15 70 15 19 22 18 36 -6z m-1367 6 c0
-12 -34 -36 -51 -36 -30 0 -22 15 14 27 17 5 33 11 35 12 1 0 2 -1 2 -3z
m-7052 -78 c-43 -28 -93 -18 -93 18 0 15 8 19 39 19 26 1 42 7 50 21 10 17 11
16 14 -15 2 -20 -2 -37 -10 -43z m7796 40 c21 -41 20 -43 -9 -56 -29 -13 -37
-4 -33 38 3 22 0 25 -24 22 -20 -3 -28 1 -28 12 0 12 10 16 39 16 34 0 42 -4
55 -32z m66 18 c0 -8 15 -17 35 -20 29 -6 37 -12 41 -35 4 -17 16 -33 30 -40
13 -6 24 -17 24 -25 0 -8 10 -16 22 -18 13 -2 24 -11 26 -21 4 -17 2 -17 -27
-3 -37 20 -41 20 -41 2 0 -7 8 -16 18 -18 9 -3 27 -26 40 -51 13 -26 27 -49
33 -52 5 -4 9 -22 9 -41 0 -45 -24 -41 -28 3 -2 23 -7 30 -20 26 -18 -4 -65
64 -96 137 -8 20 -23 44 -35 54 -11 10 -23 31 -26 47 -4 16 -11 31 -16 34 -12
8 -12 35 1 35 6 0 10 -6 10 -14z m140 4 c0 -5 -4 -10 -9 -10 -6 0 -13 5 -16
10 -3 6 1 10 9 10 9 0 16 -4 16 -10z m-7445 -10 c3 -5 -1 -10 -10 -10 -9 0
-13 5 -10 10 3 6 8 10 10 10 2 0 7 -4 10 -10z m6645 0 c0 -5 -4 -10 -10 -10
-5 0 -10 5 -10 10 0 6 5 10 10 10 6 0 10 -4 10 -10z m-1349 -44 c-14 -16 -88
-39 -101 -31 -19 12 -9 24 28 34 21 6 46 17 57 25 18 13 20 13 23 0 2 -8 -1
-21 -7 -28z m2449 18 c10 -26 -1 -54 -21 -54 -14 0 -30 40 -24 60 9 28 34 25
45 -6z m-7560 -8 c0 -16 -87 -109 -104 -112 -6 -1 -19 -5 -29 -9 -13 -6 -16
-3 -11 9 3 9 15 16 25 16 12 0 19 7 19 21 0 13 10 23 29 30 15 5 34 21 41 34
15 28 30 33 30 11z m1659 -21 c37 6 41 5 41 -14 0 -12 16 -38 37 -58 39 -39
29 -62 -11 -24 -12 12 -34 21 -49 21 -20 0 -30 7 -37 24 -5 14 -19 26 -32 28
-16 2 -24 11 -27 28 -3 25 -3 25 17 6 16 -14 29 -17 61 -11z m266 6 c3 -6 7
-31 9 -56 4 -55 5 -56 53 -64 26 -4 39 -12 41 -25 4 -17 0 -18 -29 -11 -19 4
-48 7 -65 6 -23 -1 -34 5 -44 24 -12 23 -12 27 9 41 30 22 12 42 -42 46 -31 2
-43 8 -45 22 -3 16 1 17 36 11 25 -4 42 -2 47 4 8 14 22 14 30 2z m-725 -5 c0
-3 -4 -8 -10 -11 -5 -3 -10 -1 -10 4 0 6 5 11 10 11 6 0 10 -2 10 -4z m972
-23 c19 -17 25 -53 8 -53 -15 0 -50 38 -50 55 0 20 19 19 42 -2z m135 -10 c16
-16 32 -35 35 -43 4 -13 14 -13 79 -1 101 18 174 27 379 46 189 19 599 15 750
-5 41 -6 95 -12 120 -15 89 -8 277 -46 405 -81 33 -9 78 -20 100 -25 69 -15
295 -91 415 -141 167 -69 456 -208 500 -242 8 -6 31 -20 50 -30 83 -44 250
-162 250 -176 0 -9 -5 -21 -12 -28 -8 -8 -8 -15 1 -26 10 -12 6 -16 -24 -26
-19 -6 -35 -18 -35 -25 0 -8 -10 -17 -22 -20 -13 -4 -48 -32 -79 -61 -30 -30
-69 -58 -85 -63 -37 -10 -80 2 -111 31 -27 25 -42 17 -45 -27 -2 -41 -6 -47
-28 -35 -12 6 -16 17 -13 30 8 31 -40 26 -73 -7 -24 -24 -28 -25 -39 -10 -8
12 -27 17 -60 17 -39 0 -51 5 -75 30 -15 17 -35 30 -44 30 -22 0 -31 -27 -16
-45 14 -16 5 -35 -16 -35 -19 0 -18 -19 2 -41 18 -20 11 -39 -15 -39 -11 0
-23 -12 -29 -27 -20 -49 -34 -122 -29 -143 3 -11 1 -18 -3 -15 -5 3 -13 -9
-19 -27 -28 -89 -55 -197 -56 -230 -1 -21 -7 -43 -13 -51 -6 -7 -15 -31 -21
-52 -5 -22 -17 -65 -26 -95 -30 -99 -36 -132 -33 -178 1 -33 -3 -48 -16 -57
-18 -14 -117 -360 -131 -458 -3 -27 -15 -69 -26 -94 -10 -24 -19 -62 -19 -84
0 -23 -8 -51 -19 -67 -48 -69 -25 -140 42 -127 18 3 43 10 57 15 14 5 72 21
130 35 112 28 134 39 101 50 -12 3 -21 10 -21 15 0 11 29 40 40 40 14 0 40
-30 40 -46 0 -18 11 -18 35 -1 12 10 14 16 7 21 -13 8 -16 66 -4 66 5 0 17 -6
28 -14 16 -13 17 -18 7 -35 -9 -15 -10 -22 -1 -27 13 -8 36 20 45 54 5 22 9
23 57 17 28 -4 60 -11 72 -15 22 -9 104 9 104 22 0 16 55 30 120 33 87 2 124
20 128 63 2 23 8 32 21 32 10 0 30 9 45 21 15 11 33 18 41 15 8 -3 15 -1 15 4
0 6 9 10 20 10 11 0 20 -4 20 -10 0 -5 7 -10 15 -10 17 0 20 26 5 35 -6 4 -8
16 -4 27 3 11 7 31 9 44 4 36 10 38 60 27 25 -6 45 -6 45 -2 0 15 -39 49 -52
46 -7 -1 -13 7 -13 18 0 17 6 19 45 16 24 -1 57 -9 72 -17 24 -12 26 -16 15
-36 -28 -53 -50 -78 -68 -78 -11 0 -28 -9 -38 -19 -17 -17 -18 -25 -10 -55 6
-20 15 -36 21 -36 6 0 63 14 126 32 85 24 116 37 120 50 5 19 22 25 22 8 0
-14 43 -13 57 1 6 6 31 13 55 15 24 2 66 10 93 18 28 7 113 30 190 50 189 51
207 70 139 146 l-36 40 -118 0 c-94 0 -120 3 -130 15 -22 26 1 33 75 24 75 -9
105 -5 105 15 0 7 -29 41 -65 75 -89 86 -105 108 -105 148 0 48 19 79 99 157
39 38 71 75 71 81 0 6 23 27 52 45 l51 34 35 -40 c32 -37 180 -256 266 -393
42 -69 92 -164 150 -289 21 -46 45 -86 52 -89 8 -3 14 -15 14 -27 0 -29 72
-220 85 -225 6 -2 18 11 27 29 25 50 34 55 63 42 34 -16 32 -27 -16 -79 -29
-32 -38 -48 -30 -56 7 -7 18 -7 36 1 33 15 35 15 35 -2 0 -7 -16 -24 -35 -37
-39 -27 -41 -39 -21 -101 57 -170 126 -515 147 -733 6 -60 13 -211 16 -335 12
-517 -74 -992 -271 -1500 -54 -139 -86 -213 -110 -259 -15 -28 -16 -39 -7 -53
14 -23 6 -38 -19 -38 -11 0 -26 -12 -35 -30 -20 -38 -19 -47 5 -55 31 -10 24
-27 -9 -23 -34 3 -45 -9 -106 -112 -36 -62 -164 -259 -175 -270 -3 -3 -18 -22
-33 -43 -15 -20 -34 -37 -42 -37 -8 0 -29 13 -47 28 -18 15 -45 36 -60 45 -16
10 -28 23 -28 30 0 6 -34 47 -75 90 -111 115 -113 153 -12 257 88 90 94 95
111 81 28 -24 34 20 33 244 l-2 220 -140 2 c-128 1 -140 0 -153 -18 -11 -16
-11 -23 -2 -34 10 -12 10 -15 -1 -15 -8 0 -5 -6 7 -15 16 -12 16 -14 3 -15
-10 0 -16 -7 -15 -17 1 -15 -6 -18 -49 -15 -27 2 -54 8 -59 13 -14 13 -54 11
-58 -3 -2 -6 -12 -9 -21 -5 -9 3 -14 12 -11 20 5 15 -15 22 -152 57 -108 27
-111 27 -116 -15 -4 -38 23 -75 54 -75 9 0 30 -21 47 -47 l32 -47 -36 -22
c-45 -27 -110 -26 -110 2 0 11 6 18 13 17 13 -3 52 31 52 46 0 5 -17 5 -41 0
-43 -10 -74 2 -66 25 3 6 0 19 -4 28 -5 10 -5 28 1 44 14 35 6 41 -27 23 -20
-10 -27 -11 -30 -2 -2 7 -11 9 -20 6 -9 -4 -21 1 -27 9 -6 8 -24 19 -41 25
-21 7 -31 18 -37 41 -11 41 -39 56 -113 58 -75 2 -112 12 -147 37 -33 24 -98
25 -189 2 -22 -6 -27 -3 -33 18 -3 14 -13 33 -22 41 -20 21 -41 21 -24 1 16
-19 -2 -65 -25 -65 -18 0 -21 65 -4 76 8 4 7 9 -2 15 -23 15 -37 10 -43 -15
-7 -28 -33 -41 -52 -25 -16 13 -19 49 -4 49 6 0 10 4 10 9 0 8 -292 91 -322
91 -43 0 -53 -68 -19 -126 12 -19 21 -52 21 -73 0 -33 46 -217 135 -536 14
-49 32 -93 40 -98 10 -5 15 -24 15 -59 0 -55 65 -307 84 -323 6 -5 11 -28 12
-50 0 -37 24 -136 59 -245 8 -25 23 -79 33 -120 17 -64 22 -75 40 -73 26 3 38
-28 18 -43 -22 -15 -20 -30 6 -48 18 -13 19 -18 8 -30 -15 -19 -7 -46 14 -46
8 0 26 11 38 25 16 17 38 27 73 31 28 4 58 13 67 21 14 13 19 12 37 -6 12 -12
36 -24 53 -28 29 -6 31 -5 24 20 -5 22 -3 27 13 27 14 0 21 -10 25 -35 8 -41
16 -43 62 -14 70 43 108 33 192 -51 27 -27 55 -50 60 -50 6 0 17 -9 25 -20 7
-10 25 -24 40 -29 17 -7 27 -18 27 -31 0 -12 11 -32 25 -46 39 -39 39 -40 -82
-125 -51 -35 -111 -77 -134 -94 -48 -34 -38 -29 -149 -84 -47 -24 -128 -65
-180 -91 -169 -85 -494 -212 -645 -251 -16 -4 -73 -19 -125 -32 -52 -14 -121
-30 -152 -37 -31 -6 -62 -17 -68 -25 -8 -10 -18 -11 -34 -5 -14 5 -50 3 -92
-5 -180 -33 -283 -40 -619 -40 -269 1 -363 4 -450 18 -60 9 -138 21 -172 26
-68 10 -145 25 -239 47 -82 19 -106 18 -127 -7 -23 -27 -41 -20 -42 16 0 15
-7 31 -15 36 -21 11 -114 38 -118 35 -1 -2 3 -23 9 -48 13 -48 5 -102 -14 -95
-7 2 -13 12 -13 23 -4 56 -18 106 -33 112 -9 3 -25 15 -36 27 -17 18 -165 75
-194 75 -5 0 -6 -10 -4 -23 4 -19 -2 -25 -38 -38 l-43 -16 26 -26 c27 -27 27
-27 5 -27 -13 0 -29 6 -35 12 -10 10 -14 8 -19 -10 -9 -36 -37 -23 -41 18 -2
19 -13 45 -24 57 -11 12 -17 26 -13 32 12 20 34 12 52 -19 9 -17 20 -30 23
-30 3 0 1 30 -5 67 l-11 67 -59 24 c-73 29 -99 24 -125 -27 -11 -22 -24 -43
-30 -46 -6 -4 -8 -14 -6 -23 9 -27 -8 -44 -36 -37 -24 6 -25 11 -23 53 2 33 8
48 19 50 21 5 20 36 -3 81 -11 20 -21 43 -24 52 -7 22 -98 68 -104 52 -3 -7
-9 -13 -14 -13 -4 0 -6 7 -2 16 7 18 -19 42 -79 74 -43 23 -58 25 -58 8 0 -7
-9 -24 -20 -38 -11 -14 -20 -35 -20 -47 0 -13 -4 -23 -10 -23 -5 0 -10 18 -10
40 0 31 6 47 25 64 14 13 25 27 25 32 0 5 -28 27 -61 48 -34 22 -63 45 -66 53
-3 7 11 31 31 53 19 22 38 51 42 65 4 18 11 24 21 20 10 -3 42 20 89 67 127
124 156 125 279 7 45 -43 87 -79 93 -79 18 0 23 34 13 101 -10 68 -2 91 24 69
12 -10 15 -36 15 -122 l0 -110 42 -39 c50 -45 72 -48 94 -14 15 23 59 172 105
355 12 47 27 105 34 130 11 38 11 47 -1 56 -15 12 -20 29 -5 20 16 -10 35 26
59 113 40 151 40 147 -4 156 -33 6 -41 3 -56 -15 -10 -12 -18 -30 -18 -40 0
-10 -9 -22 -20 -25 -11 -3 -20 -11 -20 -16 0 -5 -6 -9 -14 -9 -8 0 -22 -10
-30 -22 -15 -21 -16 -21 -21 -2 -4 10 -13 31 -20 45 -19 34 -9 101 14 97 9 -2
16 -9 16 -16 0 -7 6 -17 14 -21 7 -5 10 -14 7 -20 -5 -7 1 -11 14 -11 16 0 20
5 16 18 -24 81 -17 93 60 97 44 2 58 6 55 16 -8 28 0 72 17 98 9 14 22 35 28
46 6 10 24 23 41 27 38 10 44 24 49 112 4 82 9 97 40 143 23 35 31 82 17 97
-5 4 -9 22 -10 39 -1 18 -3 43 -5 57 -2 18 2 25 17 28 26 5 55 31 55 49 0 11
-4 11 -23 -2 -22 -14 -25 -14 -42 6 -25 26 -6 41 38 28 22 -6 33 -5 39 4 14
21 9 36 -14 39 -18 2 -23 10 -23 33 0 39 36 43 45 5 8 -35 12 -25 60 153 44
169 46 203 6 213 -28 7 -106 -13 -106 -26 0 -6 -17 -10 -37 -10 -21 0 -72 -9
-113 -20 -246 -66 -385 -103 -457 -122 -47 -13 -83 -27 -83 -34 0 -17 -33 -26
-64 -18 -16 4 -66 -4 -129 -21 -56 -15 -122 -32 -146 -39 -27 -7 -46 -18 -49
-28 -5 -20 -18 -24 -24 -6 -3 8 -30 5 -94 -11 -135 -35 -194 -54 -189 -62 3
-4 -4 -5 -16 -2 -11 3 -37 1 -57 -5 -20 -6 -54 -16 -74 -22 -30 -9 -38 -16
-38 -36 0 -28 -16 -31 -43 -7 -19 17 -20 17 -34 -5 -16 -22 -43 -30 -43 -12 0
19 -29 10 -36 -12 -5 -17 0 -27 21 -44 22 -18 29 -32 33 -75 3 -30 11 -58 18
-62 20 -11 18 -20 -11 -51 -14 -15 -25 -38 -25 -51 0 -20 5 -23 28 -22 18 1
27 -3 27 -13 0 -10 -12 -16 -37 -18 -45 -4 -48 -17 -13 -68 43 -64 34 -95 -55
-189 -27 -27 -51 -60 -55 -72 -3 -13 -12 -23 -20 -23 -7 0 -16 -11 -19 -25 -4
-17 -13 -25 -28 -25 -12 0 -39 -16 -59 -36 -20 -20 -48 -41 -61 -48 -12 -6
-27 -22 -33 -34 -12 -27 -41 -25 -37 3 2 11 3 44 2 73 -1 43 -7 62 -33 96 -18
23 -47 64 -65 90 -25 36 -38 47 -52 43 -28 -7 -43 15 -26 39 13 18 10 27 -31
95 -25 40 -76 132 -113 204 -37 71 -71 130 -76 130 -22 1 -34 18 -28 40 4 14
-4 49 -19 87 -130 330 -173 473 -256 858 -63 288 -69 829 -14 1239 12 95 13
128 5 142 -16 25 -15 26 8 32 14 3 20 14 20 31 0 32 -27 35 -59 6 -17 -14 -32
-18 -55 -13 -72 13 -226 120 -226 157 0 9 2 16 5 16 16 0 63 -31 68 -45 4 -8
18 -15 34 -15 17 0 33 -8 41 -20 7 -11 21 -20 31 -20 11 0 26 -7 34 -15 18
-17 53 -9 109 25 32 19 40 31 58 89 11 38 20 73 20 79 0 6 25 87 55 180 30 93
55 181 55 195 0 14 6 30 14 34 15 8 56 103 56 128 0 9 -16 16 -45 21 -54 8
-63 18 -39 45 21 23 79 26 88 4 3 -8 10 -15 15 -15 11 0 181 327 181 347 0 7
9 17 20 23 11 6 20 15 20 21 0 5 11 27 25 47 26 38 32 58 16 47 -5 -3 -13 -1
-16 5 -10 16 14 40 39 40 15 1 38 27 86 97 36 53 66 100 68 103 1 3 -19 7 -45
9 -26 1 -50 4 -55 7 -16 10 -8 32 15 38 41 11 66 6 82 -16 l16 -23 25 30 c13
17 29 36 35 43 9 11 18 7 45 -18 21 -21 38 -30 49 -26 12 4 20 -4 31 -30 8
-19 19 -32 24 -29 5 3 12 -5 15 -17 4 -13 35 -51 69 -86 55 -57 61 -67 61
-105 0 -28 -8 -53 -23 -75 -29 -40 -23 -60 20 -64 21 -2 33 -8 33 -18 0 -10
-8 -14 -27 -12 -24 2 -28 -1 -28 -23 0 -14 11 -34 25 -47 28 -25 32 -43 10
-52 -10 -4 -15 -20 -15 -51 0 -52 -14 -85 -35 -85 -18 0 -31 -48 -17 -62 7 -7
17 -6 33 2 20 11 25 10 37 -9 17 -25 31 -27 47 -4 17 22 45 10 38 -16 -3 -12
-3 -21 0 -21 3 0 32 -7 64 -16 32 -9 74 -20 93 -24 19 -5 67 -18 105 -28 127
-35 125 -35 125 -9 0 13 -5 28 -12 35 -9 9 -8 12 5 12 16 0 22 -19 19 -61 -2
-21 55 -34 74 -18 11 9 14 8 14 -4 0 -10 14 -20 38 -26 64 -17 125 -32 179
-45 28 -6 55 -15 59 -19 11 -10 52 -9 59 3 9 15 17 12 48 -14 26 -23 63 -34
327 -103 52 -14 141 -39 197 -55 60 -17 111 -27 123 -23 13 4 28 1 38 -9 21
-18 105 -38 127 -30 27 11 27 49 0 150 -15 55 -33 123 -41 153 -21 77 -30 90
-38 57 -9 -36 -40 -31 -44 6 -3 27 27 55 43 40 4 -4 4 11 1 33 -8 44 -40 85
-67 85 -22 0 -35 36 -19 55 6 8 9 23 5 35 -4 12 -1 27 5 35 11 13 9 43 -6 96
-2 9 -16 21 -29 27 -22 10 -25 9 -25 -8 0 -10 12 -31 26 -47 26 -28 26 -40 4
-98 -15 -40 -26 -23 -33 51 -4 37 -9 69 -12 72 -3 3 -22 6 -42 7 -35 1 -38 3
-39 35 -2 40 -40 72 -94 80 l-35 5 -3 68 c-3 62 -1 67 18 67 17 0 19 4 14 28
-6 24 -5 25 8 14 9 -7 14 -20 13 -30 -16 -80 -16 -82 18 -102 17 -11 42 -20
55 -20 21 0 26 -9 23 -38 -1 -7 5 -15 14 -18 9 -4 20 -17 25 -29 7 -17 14 -21
34 -18 25 5 37 23 16 23 -6 0 -8 20 -4 53 8 75 -13 129 -57 143 -20 7 -38 21
-44 36 -5 14 -16 32 -23 40 -14 18 -19 65 -9 88 6 13 -3 15 -53 16 -73 1 -85
10 -76 58 9 48 9 50 -3 54 -6 2 -11 -4 -11 -12 0 -9 -7 -19 -15 -22 -8 -4 -15
-12 -15 -20 0 -8 -7 -14 -15 -14 -22 0 -19 72 4 115 l19 36 28 -24 c16 -13 37
-26 47 -30 9 -3 17 -15 17 -26 0 -33 33 -65 61 -58 53 14 54 18 29 113 -29
115 -49 164 -66 164 -8 0 -14 5 -14 10 0 6 5 10 11 10 7 0 9 11 6 28 -3 15
-11 50 -16 77 -6 28 -20 82 -31 120 -11 39 -25 90 -31 115 -62 246 -81 266
-171 175 -27 -27 -28 -31 -28 -136 0 -115 -4 -139 -25 -139 -22 0 -24 13 -15
83 10 69 6 97 -15 97 -6 0 -45 -33 -86 -73 -124 -124 -159 -123 -288 7 -42 42
-80 72 -87 69 -8 -3 -16 5 -20 21 -3 14 -12 30 -20 37 -8 6 -14 19 -14 27 0
19 52 66 97 87 17 9 41 27 52 41 11 14 31 27 45 30 39 7 143 73 149 95 4 14
13 19 34 17 32 -2 91 26 100 48 3 7 11 14 19 14 7 0 23 14 36 30 25 34 42 40
33 10 -8 -26 -5 -26 87 12 59 24 78 37 78 51 0 16 5 18 33 13 23 -4 54 2 107
23 142 54 364 121 450 135 61 11 68 20 41 56 -21 30 -23 60 -2 60 5 0 22 -12
38 -27z m-1219 -13 c62 -45 51 -83 -15 -55 -32 14 -53 41 -53 69 0 24 22 19
68 -14z m319 -7 c8 -21 24 -44 34 -51 26 -18 24 -30 -6 -38 -14 -4 -24 -9 -21
-12 7 -6 -38 -42 -53 -42 -14 0 -31 62 -20 75 5 5 9 22 9 38 0 32 16 67 31 67
5 0 17 -17 26 -37z m3590 -19 c23 9 34 -3 22 -25 -7 -14 -18 -19 -37 -17 -21
2 -29 11 -38 43 -15 53 -6 65 19 26 12 -20 25 -30 34 -27z m1423 40 c0 -8 -5
-12 -10 -9 -6 4 -8 11 -5 16 9 14 15 11 15 -7z m-7385 -23 c-11 -19 -63 -41
-79 -35 -27 11 -18 34 13 34 16 0 34 7 41 15 15 18 37 4 25 -14z m759 14 c-6
-16 -34 -21 -34 -7 0 13 11 22 26 22 8 0 11 -6 8 -15z m313 -25 c2 -19 6 -60
9 -91 5 -53 4 -58 -23 -84 -15 -14 -38 -31 -50 -36 -18 -6 -23 -17 -23 -43 0
-32 -23 -66 -33 -49 -3 5 2 33 12 62 12 37 25 58 44 67 46 25 56 135 16 180
-23 24 -15 36 21 32 21 -3 25 -9 27 -38z m1907 24 c7 -18 0 -34 -16 -34 -11 0
-37 29 -38 43 0 14 48 7 54 -9z m4347 -66 c13 -5 39 -10 58 -10 l34 0 -29 -24
c-16 -13 -39 -23 -51 -24 -15 0 -23 -7 -25 -22 -7 -53 -88 -19 -88 37 0 24 -5
34 -19 38 -12 3 -18 13 -18 31 0 26 1 27 37 21 34 -6 39 -4 46 17 7 21 9 20
19 -16 8 -26 19 -42 36 -48z m-6821 57 c6 -8 9 -18 6 -23 -8 -13 -56 -2 -56
12 0 28 30 35 50 11z m5158 3 c18 -18 15 -68 -3 -68 -15 0 -35 37 -35 66 0 17
22 18 38 2z m-5788 -19 c0 -5 -4 -9 -10 -9 -5 0 -10 7 -10 16 0 8 5 12 10 9 6
-3 10 -10 10 -16z m6330 9 c0 -7 -12 -19 -27 -25 -46 -22 -113 -14 -113 13 0
9 19 14 68 17 37 2 68 4 70 5 1 1 2 -4 2 -10z m-6160 -8 c0 -5 -7 -10 -16 -10
-8 0 -12 5 -9 10 3 6 10 10 16 10 5 0 9 -4 9 -10z m5725 -20 c0 -27 -22 -39
-31 -16 -8 22 3 49 19 43 6 -2 12 -14 12 -27z m2675 5 c0 -8 -2 -15 -4 -15 -2
0 -6 7 -10 15 -3 8 -1 15 4 15 6 0 10 -7 10 -15z m-7503 -27 c-3 -8 -6 -5 -6
6 -1 11 2 17 5 13 3 -3 4 -12 1 -19z m-877 -3 c0 -8 -2 -15 -4 -15 -2 0 -11
-3 -20 -6 -10 -4 -16 -1 -16 9 0 14 13 24 33 26 4 1 7 -6 7 -14z m440 -12 c0
-16 -3 -44 -6 -64 -5 -32 -11 -38 -47 -50 -22 -7 -51 -24 -63 -36 -33 -33 -47
-30 -39 10 9 42 34 67 76 76 28 6 35 12 37 36 6 53 42 77 42 28z m5378 0 c-4
-34 -28 -43 -28 -10 0 25 7 37 22 37 5 0 8 -12 6 -27z m-3231 -5 c13 -12 23
-27 23 -34 0 -25 -20 -25 -45 2 -44 47 -25 76 22 32z m5258 0 c8 -19 19 -24
58 -26 43 -3 52 -8 45 -29 -2 -5 -26 -9 -54 -10 -49 -2 -51 -1 -64 33 -8 18
-17 34 -22 34 -4 0 -8 5 -8 10 0 19 35 10 45 -12z m-2565 -4 c0 -8 -5 -12 -10
-9 -6 4 -8 11 -5 16 9 14 15 11 15 -7z m-4606 -10 c10 -27 7 -34 -19 -34 -28
0 -29 3 -15 31 13 23 26 24 34 3z m4786 -31 c0 -7 7 -16 16 -21 11 -6 14 -16
9 -31 -3 -11 -9 -21 -13 -21 -11 1 -52 101 -46 112 7 10 33 -20 34 -39z m273
17 c-1 -14 5 -42 14 -63 12 -28 14 -40 5 -49 -14 -14 -11 -16 -40 45 -31 67
-29 102 8 95 9 -2 14 -13 13 -28z m2045 3 c2 -14 12 -23 25 -25 28 -4 29 -22
1 -26 -27 -4 -76 42 -68 63 9 23 38 14 42 -12z m546 12 c-7 -16 -24 -21 -24
-6 0 8 7 13 27 20 1 1 0 -6 -3 -14z m87 -28 c-13 -13 -31 0 -24 19 4 11 8 12
20 3 9 -8 10 -16 4 -22z m-887 8 c-4 -8 -10 -12 -15 -9 -14 8 -10 24 6 24 9 0
12 -6 9 -15z m-7244 -85 c0 -5 -4 -10 -10 -10 -5 0 -10 5 -10 10 0 6 5 10 10
10 6 0 10 -4 10 -10z m350 -10 c-6 -11 -14 -20 -19 -20 -8 0 -19 -24 -35 -72
-3 -11 -11 -15 -21 -12 -20 8 -20 60 0 68 8 3 20 17 25 31 7 18 17 25 35 25
23 0 24 -2 15 -20z m1870 0 c0 -5 -4 -10 -10 -10 -5 0 -10 5 -10 10 0 6 5 10
10 10 6 0 10 -4 10 -10z m-393 -88 c21 -29 23 -36 12 -47 -10 -9 -21 -10 -37
-4 -21 8 -23 13 -18 71 6 76 8 82 13 43 3 -16 16 -45 30 -63z m-157 68 c8 -5
12 -12 8 -15 -9 -9 -48 4 -48 16 0 12 21 11 40 -1z m-1153 -20 c3 -11 13 -20
22 -21 9 0 11 -3 5 -5 -21 -9 -64 14 -58 31 9 21 25 19 31 -5z m6733 0 c6 -11
20 -20 30 -20 15 0 20 -7 20 -25 0 -14 -3 -25 -6 -25 -3 0 -20 11 -38 25 -18
14 -40 25 -49 25 -19 0 -31 16 -22 30 11 18 54 11 65 -10z m293 -16 c29 -25
32 -25 44 -8 13 17 15 17 39 -8 26 -25 26 -26 8 -44 -22 -22 -95 -26 -102 -6
-2 7 -15 17 -28 22 -16 6 -24 17 -24 33 0 45 19 48 63 11z m-7385 -2 c2 -7 -3
-12 -12 -12 -9 0 -16 7 -16 16 0 17 22 14 28 -4z m1888 -3 c10 -17 -13 -36
-27 -22 -12 12 -4 33 11 33 5 0 12 -5 16 -11z m-111 -9 c3 -5 1 -10 -4 -10 -6
0 -11 5 -11 10 0 6 2 10 4 10 3 0 8 -4 11 -10z m-1381 -56 c11 -28 6 -61 -12
-84 -17 -21 -18 -21 -35 -2 -18 19 -18 22 3 61 22 44 34 51 44 25z m6846 1
c10 -12 9 -16 -5 -21 -19 -8 -40 9 -31 25 10 15 21 14 36 -4z m-318 -37 c-9
-9 -15 -9 -24 0 -10 10 -10 15 2 22 9 6 19 5 24 0 7 -7 6 -14 -2 -22z m428 1
c0 -14 -17 -10 -23 5 -4 10 -1 13 9 9 7 -3 14 -9 14 -14z m-7040 -24 c0 -8 -4
-15 -10 -15 -5 0 -10 7 -10 15 0 8 5 15 10 15 6 0 10 -7 10 -15z m-64 -16 c10
-17 -13 -36 -27 -22 -12 12 -4 33 11 33 5 0 12 -5 16 -11z m5709 -76 c-4 -75
-24 -151 -40 -149 -5 0 -9 12 -7 26 2 14 6 59 9 100 4 67 13 89 35 90 3 0 5
-30 3 -67z m990 49 c-3 -3 -11 0 -18 7 -9 10 -8 11 6 5 10 -3 15 -9 12 -12z
m151 -24 c4 -6 0 -16 -9 -23 -10 -7 -17 -17 -17 -24 0 -6 -4 -11 -10 -11 -12
0 -12 0 1 39 11 32 23 39 35 19z m-123 -10 c23 -13 37 -28 37 -39 0 -14 -49
-18 -79 -8 -33 12 -39 27 -19 47 15 15 33 15 61 0z m365 -24 c12 -8 22 -21 22
-28 0 -8 11 -21 25 -30 24 -16 34 -36 18 -36 -12 0 -113 91 -113 101 0 14 23
10 48 -7z m-7368 -12 c0 -13 -12 -22 -22 -16 -10 6 -1 24 13 24 5 0 9 -4 9 -8z
m70 -35 c0 -25 -26 -67 -41 -67 -17 0 -10 68 9 79 26 16 32 13 32 -12z m-114
-13 c-3 -9 -6 -27 -6 -41 0 -35 -23 -24 -31 15 -7 36 -4 42 24 42 13 0 17 -5
13 -16z m7166 -39 c24 -5 39 -14 43 -26 17 -54 129 -67 182 -21 30 26 38 18
31 -30 -2 -19 -10 -23 -38 -24 -19 0 -56 -4 -81 -8 -41 -7 -49 -5 -78 20 -18
15 -37 38 -42 51 -7 19 -16 23 -48 23 -42 0 -57 11 -47 37 6 14 8 14 24 0 9
-8 34 -18 54 -22z m-42 -102 c0 -20 -3 -24 -11 -16 -7 7 -9 19 -6 27 10 24 17
19 17 -11z m-1147 -95 c7 -26 1 -38 -19 -38 -17 0 -28 24 -20 45 8 22 33 18
39 -7z m-4467 -35 c-11 -11 -19 6 -11 24 8 17 8 17 12 0 3 -10 2 -21 -1 -24z
m-396 -24 c0 -5 -10 -9 -21 -9 -18 0 -19 2 -9 15 12 15 30 12 30 -6z m5014
-20 c-3 -5 -10 -7 -15 -3 -5 3 -7 10 -3 15 3 5 10 7 15 3 5 -3 7 -10 3 -15z
m-3954 -14 c0 -8 -4 -15 -10 -15 -5 0 -10 -9 -10 -19 0 -11 -4 -23 -10 -26
-11 -7 -14 57 -3 68 12 13 33 7 33 -8z m3750 -11 c0 -20 -45 -64 -65 -64 -38
0 -28 51 13 67 40 16 52 15 52 -3z m-4453 -74 c53 -28 87 -56 77 -62 -14 -8
-114 26 -125 43 -12 19 -11 39 1 39 5 0 26 -9 47 -20z m-469 -52 c7 -10 24
-18 37 -18 13 0 36 -5 52 -11 15 -7 38 -11 51 -10 13 0 20 -3 17 -9 -4 -6 -9
-8 -13 -6 -4 2 -16 -2 -27 -10 -15 -11 -17 -17 -7 -23 17 -10 4 -43 -17 -39
-9 2 -17 12 -18 23 -2 38 -15 65 -31 65 -8 0 -39 11 -69 25 -48 23 -63 41 -47
58 8 8 55 -22 72 -45z m4433 19 c-13 -13 -26 -3 -16 12 3 6 11 8 17 5 6 -4 6
-10 -1 -17z m-3278 -9 c3 -12 4 -25 1 -30 -7 -11 -44 -10 -44 1 0 5 -12 11
-27 13 -17 2 -29 10 -31 21 -3 14 4 17 46 17 43 0 50 -3 55 -22z m-823 -8 c0
-5 -4 -10 -10 -10 -5 0 -10 5 -10 10 0 6 5 10 10 10 6 0 10 -4 10 -10z m4315
-1 c4 -6 5 -12 2 -15 -7 -7 -37 7 -37 17 0 13 27 11 35 -2z m-3920 -20 c-3 -4
-12 -6 -20 -3 -8 4 -13 10 -10 15 3 4 12 6 20 3 8 -4 13 -10 10 -15z m165 17
c0 -3 -4 -8 -10 -11 -5 -3 -10 -1 -10 4 0 6 5 11 10 11 6 0 10 -2 10 -4z m120
-46 c0 -13 -7 -20 -20 -20 -18 0 -19 2 -8 20 7 11 16 20 20 20 5 0 8 -9 8 -20z
m-273 -26 c-9 -9 -28 6 -21 18 4 6 10 6 17 -1 6 -6 8 -13 4 -17z m-317 6 c0
-5 -4 -10 -10 -10 -5 0 -10 5 -10 10 0 6 5 10 10 10 6 0 10 -4 10 -10z m4940
-26 c0 -14 -5 -34 -11 -45 -10 -20 -11 -20 -30 -3 -11 10 -19 12 -19 6 0 -17
-25 -15 -40 3 -14 17 -10 19 53 30 28 4 37 10 33 21 -3 8 -1 14 4 14 6 0 10
-12 10 -26z m-1042 4 c8 -8 9 -15 1 -25 -15 -17 -34 -17 -49 2 -23 28 21 50
48 23z m280 -31 c3 -12 -4 -17 -22 -17 -27 0 -37 24 -13 33 19 8 32 2 35 -16z
m-4383 -50 c23 8 45 -4 39 -21 -5 -12 -11 -13 -24 -6 -10 6 -27 10 -38 10 -26
0 -46 25 -37 47 6 16 9 15 26 -9 12 -16 26 -25 34 -21z m-961 18 c11 -8 30
-15 42 -15 12 0 27 -7 34 -15 16 -20 -9 -30 -48 -20 -15 4 -58 8 -95 9 -47 1
-70 5 -77 16 -13 21 -1 33 29 27 15 -3 33 -2 41 4 22 13 52 10 74 -6z m1436
-20 c0 -7 14 -18 30 -24 29 -10 42 -42 22 -55 -15 -9 -82 64 -82 91 0 21 2 24
15 13 8 -7 15 -18 15 -25z m3543 23 c7 -20 -11 -58 -27 -58 -7 0 -16 -9 -19
-20 -3 -13 -14 -20 -30 -20 -36 0 -43 18 -14 31 14 6 33 27 43 45 19 35 38 44
47 22z m1937 -5 c0 -23 -23 -83 -31 -83 -15 0 -19 19 -10 42 5 13 12 31 15 41
7 22 26 22 26 0z m-5720 -2 c0 -5 -7 -11 -15 -15 -9 -3 -15 0 -15 9 0 8 7 15
15 15 8 0 15 -4 15 -9z m150 -21 c19 0 21 -4 15 -27 -8 -34 -23 -53 -41 -53
-17 0 -18 22 -2 38 9 9 8 12 -4 12 -19 0 -33 34 -22 51 5 9 11 7 19 -4 7 -10
22 -17 35 -17z m470 21 c0 -6 -4 -13 -10 -16 -5 -3 -10 1 -10 9 0 9 5 16 10
16 6 0 10 -4 10 -9z m-740 -27 c0 -8 -9 -14 -19 -14 -22 0 -35 15 -27 29 9 13
46 1 46 -15z m634 -1 c11 -27 -13 -42 -30 -19 -19 27 -18 36 5 36 10 0 22 -8
25 -17z m4371 7 c3 -5 1 -10 -4 -10 -6 0 -11 5 -11 10 0 6 2 10 4 10 3 0 8 -4
11 -10z m-5965 -20 c0 -5 -4 -10 -10 -10 -5 0 -10 5 -10 10 0 6 5 10 10 10 6
0 10 -4 10 -10z m5873 4 c3 -4 -1 -13 -9 -22 -17 -16 -42 -2 -30 17 8 12 29
15 39 5z m-5780 -60 c-3 -8 -1 -20 5 -27 5 -6 11 -28 14 -47 l3 -36 -32 10
c-28 9 -32 16 -38 58 -4 26 -4 56 0 67 6 19 8 20 30 5 14 -9 21 -22 18 -30z
m357 6 c0 -40 -13 -53 -24 -24 -11 29 -7 64 9 64 11 0 15 -11 15 -40z m4540
30 c0 -5 -7 -10 -15 -10 -8 0 -15 5 -15 10 0 6 7 10 15 10 8 0 15 -4 15 -10z
m1530 6 c0 -11 -19 -15 -25 -6 -3 5 1 10 9 10 9 0 16 -2 16 -4z m-5515 -16 c3
-5 -3 -10 -14 -10 -12 0 -21 5 -21 10 0 6 6 10 14 10 8 0 18 -4 21 -10z m4474
-84 c-13 -79 -21 -90 -39 -57 -15 29 -12 71 5 77 8 4 15 18 15 33 0 32 10 45
23 32 6 -6 5 -37 -4 -85z m-4019 65 c0 -11 -26 -22 -34 -14 -12 12 -5 23 14
23 11 0 20 -4 20 -9z m120 -7 c0 -8 -5 -12 -10 -9 -6 4 -8 11 -5 16 9 14 15
11 15 -7z m4270 -8 c0 -16 -18 -31 -27 -22 -8 8 5 36 17 36 5 0 10 -6 10 -14z
m-741 -26 c10 -29 8 -31 -27 -46 -20 -8 -53 -16 -72 -18 -26 -1 -36 -7 -38
-21 -4 -23 -29 -45 -50 -45 -18 0 -10 35 19 84 16 28 28 36 62 41 23 4 51 14
62 21 27 20 32 18 44 -16z m-4009 10 c0 -5 -4 -10 -8 -10 -5 0 -14 -18 -21
-40 -12 -39 -33 -52 -45 -27 -3 6 -4 -7 -1 -30 7 -55 -14 -57 -43 -5 -14 26
-2 52 24 52 7 0 25 16 40 35 25 33 54 47 54 25z m242 -21 c20 -27 15 -69 -8
-69 -8 0 -14 10 -14 23 0 12 -7 31 -15 41 -15 20 -11 40 8 33 6 -2 19 -14 29
-28z m197 22 c16 -10 6 -31 -14 -31 -17 0 -28 17 -20 30 8 12 16 12 34 1z
m-359 -31 c0 -21 -15 -27 -25 -10 -7 12 2 30 16 30 5 0 9 -9 9 -20z m570 0 c0
-23 -10 -26 -28 -8 -18 18 -15 28 8 28 13 0 20 -7 20 -20z m2988 -7 c-4 -22
-48 -31 -48 -10 0 19 10 27 32 27 13 0 18 -6 16 -17z m600 0 c-3 -5 -11 -23
-18 -40 -11 -25 -20 -33 -40 -32 -14 0 -35 -2 -48 -6 -20 -7 -22 -5 -18 26 3
31 6 34 32 31 16 -1 38 4 49 12 21 16 50 22 43 9z m-4058 -48 c0 -13 -4 -26
-9 -29 -11 -7 -22 31 -14 50 8 20 23 7 23 -21z m4570 20 c0 -15 -26 -32 -36
-23 -2 3 -2 13 2 22 8 20 34 21 34 1z m-6164 -25 c24 -26 32 -29 65 -24 50 8
63 -16 28 -52 -20 -19 -30 -22 -53 -16 -16 5 -33 16 -38 25 -4 9 -12 25 -16
35 -5 9 -23 24 -41 32 -34 17 -32 30 6 30 13 0 34 -13 49 -30z m5814 8 c0 -16
-3 -19 -11 -11 -6 6 -8 16 -5 22 11 17 16 13 16 -11z m-3850 -18 c0 -29 -11
-50 -26 -50 -17 0 -18 33 -3 61 12 23 29 16 29 -11z m-221 7 c6 -8 8 -16 5
-19 -6 -7 -54 14 -54 25 0 12 37 8 49 -6z m307 -26 c-10 -16 -36 -13 -36 3 0
17 21 27 34 16 4 -5 5 -13 2 -19z m3918 23 c9 -3 16 -12 16 -18 0 -7 16 -29
35 -50 41 -45 49 -77 13 -52 -12 9 -31 16 -41 16 -9 0 -19 6 -21 13 -16 52
-15 51 -36 32 -11 -10 -23 -15 -26 -12 -11 11 6 57 21 57 8 0 15 5 15 10 0 12
3 12 24 4z m-5254 -53 c0 -24 -23 -33 -46 -17 -22 16 -10 36 22 36 17 0 24 -6
24 -19z m4270 -3 c0 -16 -3 -19 -11 -11 -6 6 -8 16 -5 22 11 17 16 13 16 -11z
m-4679 2 c10 -6 19 -18 19 -28 -1 -38 -69 -92 -116 -92 -49 0 -43 24 11 44 38
15 45 22 51 52 7 38 7 38 35 24z m1389 -11 c0 -5 -4 -9 -10 -9 -5 0 -10 7 -10
16 0 8 5 12 10 9 6 -3 10 -10 10 -16z m3406 7 c18 -14 17 -16 -21 -50 -36 -32
-38 -37 -22 -46 19 -12 23 -30 5 -30 -6 0 -20 -8 -30 -17 -26 -23 -42 -5 -43
53 -2 39 2 48 24 62 14 9 30 22 34 29 10 17 29 16 53 -1z m759 4 c-3 -5 -10
-10 -16 -10 -5 0 -9 5 -9 10 0 6 7 10 16 10 8 0 12 -4 9 -10z m-600 -13 c7 -8
17 -38 22 -68 8 -52 10 -54 38 -52 44 4 60 -4 46 -21 -15 -17 -91 -10 -107 10
-20 25 -44 17 -44 -15 0 -26 -21 -61 -37 -61 -3 0 -3 36 0 81 9 107 45 163 82
126z m126 -24 c34 -33 36 -43 10 -43 -11 0 -29 12 -40 26 -39 50 -18 61 30 17z
m1019 3 c0 -7 -7 -19 -15 -26 -8 -7 -15 -18 -15 -24 -1 -12 -45 -66 -56 -66
-10 0 6 73 24 103 17 29 62 38 62 13z m433 -14 c9 -8 17 -21 17 -28 0 -29 -59
14 -60 44 0 14 13 9 43 -16z m-6014 -13 c25 -34 22 -59 -8 -59 -24 0 -41 28
-41 64 0 35 21 33 49 -5z m516 22 c3 -5 1 -12 -5 -16 -5 -3 -10 1 -10 9 0 18
6 21 15 7z m4455 -1 c0 -5 -4 -10 -10 -10 -5 0 -10 5 -10 10 0 6 5 10 10 10 6
0 10 -4 10 -10z m385 0 c3 -5 -1 -10 -9 -10 -9 0 -16 5 -16 10 0 6 4 10 9 10
6 0 13 -4 16 -10z m-4245 -19 c0 -11 7 -26 15 -35 22 -22 18 -28 -17 -24 -26
2 -34 8 -36 26 -4 23 13 52 29 52 5 0 9 -9 9 -19z m3910 6 c0 -8 -8 -22 -19
-31 -17 -16 -19 -16 -25 0 -7 19 10 44 30 44 8 0 14 -6 14 -13z m1565 -12 c0
-26 -30 -43 -52 -29 -26 16 -22 37 7 45 34 9 45 6 45 -16z m-6129 -37 c-1 -54
-23 -69 -68 -46 -18 9 -42 18 -52 20 -11 2 -21 9 -24 15 -7 22 26 26 74 10 44
-14 46 -14 41 5 -7 27 2 48 17 42 8 -3 12 -21 12 -46z m125 42 c21 -12 26 -40
6 -40 -17 0 -37 20 -37 37 0 16 5 16 31 3z m4289 -10 c0 -11 -7 -20 -15 -20
-17 0 -18 2 -9 24 9 23 24 20 24 -4z m-160 -24 c0 -8 -4 -17 -9 -21 -12 -7
-24 12 -16 25 9 15 25 12 25 -4z m1585 -7 c8 -23 1 -34 -14 -24 -13 8 -15 45
-2 45 5 0 13 -9 16 -21z m-5629 -13 c-3 -14 -2 -36 4 -50 11 -30 4 -33 -22 -9
-18 16 -25 63 -11 76 3 4 13 7 21 7 10 0 12 -7 8 -24z m5054 10 c0 -3 -4 -8
-10 -11 -5 -3 -10 -1 -10 4 0 6 5 11 10 11 6 0 10 -2 10 -4z m-6682 -18 c9 -9
17 -10 30 -1 22 13 74 5 69 -11 -2 -6 -12 -13 -23 -14 -10 -2 -24 -10 -29 -17
-6 -7 -33 -15 -60 -16 -58 -4 -69 12 -35 49 24 25 31 27 48 10z m2342 -24 c14
-35 13 -44 -5 -44 -16 0 -48 54 -38 64 14 14 34 5 43 -20z m3280 -33 c14 -52
13 -54 -19 -48 -23 5 -30 2 -34 -12 -3 -13 -17 -20 -43 -23 -41 -5 -54 4 -54
36 0 15 5 17 30 13 21 -5 30 -3 30 6 0 7 5 18 12 25 9 9 16 8 30 -5 15 -13 18
-14 18 -2 0 8 -5 20 -11 26 -7 7 -9 19 -5 28 9 25 33 2 46 -44z m210 55 c0 -3
-4 -8 -10 -11 -5 -3 -10 -1 -10 4 0 6 5 11 10 11 6 0 10 -2 10 -4z m115 -15
c0 -11 -13 -15 -47 -16 -50 -1 -56 3 -36 23 17 17 83 11 83 -7z m225 -6 c0 -8
-7 -15 -15 -15 -16 0 -20 12 -8 23 11 12 23 8 23 -8z m-5800 -19 c0 -8 -8 -16
-17 -20 -10 -3 -24 -9 -30 -12 -22 -10 -14 24 9 40 23 16 38 13 38 -8z m5935
13 c4 -5 -1 -19 -10 -29 -9 -10 -14 -24 -10 -29 10 -17 -51 -13 -69 4 -8 9
-13 22 -10 30 7 17 20 19 29 5 10 -16 23 -12 30 10 7 21 30 27 40 9z m-4540
-9 c3 -5 21 -10 38 -11 28 0 29 -1 11 -9 -12 -4 -24 -15 -27 -24 -7 -17 -77
-23 -77 -7 0 42 38 78 55 51z m3985 -15 c0 -16 -6 -25 -16 -25 -11 0 -14 5
-10 16 3 9 6 20 6 25 0 5 5 9 10 9 6 0 10 -11 10 -25z m1578 9 c28 -19 29 -60
1 -74 -33 -18 -75 -3 -99 37 -23 39 -20 54 6 32 15 -12 18 -11 28 4 14 21 35
22 64 1z m-6888 -50 c0 -14 -66 -31 -78 -19 -4 4 6 18 22 31 22 20 31 22 42
13 8 -6 14 -17 14 -25z m1170 1 c0 -8 -4 -17 -10 -20 -6 -4 -10 5 -10 20 0 15
4 24 10 20 6 -3 10 -12 10 -20z m-50 -1 c0 -17 -22 -14 -28 4 -2 7 3 12 12 12
9 0 16 -7 16 -16z m608 10 c23 -7 30 -28 12 -39 -14 -9 -62 23 -55 35 7 12 12
12 43 4z m3512 -4 c0 -5 -4 -10 -10 -10 -5 0 -10 5 -10 10 0 6 5 10 10 10 6 0
10 -4 10 -10z m-5699 -52 c-17 -15 -38 -28 -46 -28 -25 0 -17 27 17 54 25 19
35 22 46 13 12 -9 9 -16 -17 -39z m265 41 c3 -6 0 -17 -8 -25 -12 -12 -17 -12
-33 1 -17 13 -18 16 -5 25 20 13 37 13 46 -1z m5877 -24 c-2 -5 -12 -9 -23 -8
-30 1 -32 2 -25 14 8 13 51 8 48 -6z m-4740 -7 c12 -6 29 -14 37 -18 8 -4 16
-20 17 -36 0 -16 3 -38 5 -49 2 -11 -2 -20 -9 -19 -7 1 -24 2 -37 3 -21 1 -23
6 -22 40 0 24 -6 47 -17 58 -29 33 -17 44 26 21z m4482 2 c26 -10 26 -11 11
-35 -9 -13 -13 -31 -10 -39 3 -8 1 -23 -5 -33 -10 -17 -10 -16 -11 4 0 12 -7
26 -16 31 -8 4 -17 25 -20 45 -5 41 4 45 51 27z m-5574 -43 c-16 -16 -26 0
-10 19 9 11 15 12 17 4 2 -6 -1 -17 -7 -23z m1647 11 c-5 -32 -28 -35 -28 -4
0 17 5 26 16 26 10 0 14 -7 12 -22z m4382 7 c0 -8 -9 -15 -20 -15 -11 0 -23
-8 -26 -17 -15 -48 -46 -69 -57 -39 -7 17 42 72 71 79 30 8 32 7 32 -8z m-660
-4 c0 -6 -5 -13 -10 -16 -15 -9 -43 3 -35 15 8 13 45 13 45 1z m540 -1 c0 -15
-42 -50 -61 -50 -28 0 -49 11 -49 27 0 9 6 12 18 9 9 -3 28 1 42 9 29 17 50
19 50 5z m-4520 -21 c0 -10 -12 -11 -34 -3 -25 10 -19 22 9 16 14 -2 25 -8 25
-13z m4051 -13 c-8 -19 -18 -26 -36 -26 -42 0 -29 45 15 52 32 5 32 5 21 -26z
m-3911 -27 c0 -11 -7 -22 -16 -26 -20 -8 -44 21 -44 53 0 22 1 22 30 8 18 -9
30 -23 30 -35z m3418 18 c2 -10 -3 -17 -11 -17 -18 0 -39 24 -30 34 12 12 38
2 41 -17z m2287 -3 c12 -19 14 -29 6 -37 -17 -17 -45 4 -49 37 -4 34 20 35 43
0z m-6475 1 c0 -8 -4 -15 -10 -15 -5 0 -10 7 -10 15 0 8 5 15 10 15 6 0 10 -7
10 -15z m1010 -10 c10 -12 10 -18 0 -30 -7 -8 -9 -22 -6 -31 6 -16 -9 -44 -24
-44 -15 0 -30 54 -24 86 7 37 32 46 54 19z m3480 10 c0 -12 -61 -72 -73 -72
-18 0 -107 -53 -107 -64 0 -5 -10 -9 -22 -9 l-23 0 24 19 c35 27 10 34 -41 13
-23 -11 -59 -22 -78 -26 -20 -3 -43 -15 -53 -26 -21 -25 -38 -25 -68 -1 -34
28 -13 46 54 47 38 0 52 4 52 15 0 8 18 22 39 32 22 10 46 26 53 37 11 16 18
18 33 10 29 -16 66 -12 91 10 16 13 39 19 72 20 26 0 47 -2 47 -5z m-3672 -17
c7 -7 12 -20 12 -31 0 -30 -34 -16 -38 16 -4 29 6 35 26 15z m4182 3 c0 -14
-18 -23 -31 -15 -8 4 -7 9 2 15 18 11 29 11 29 0z m-5985 -11 c7 0 20 -11 29
-25 15 -23 15 -26 1 -31 -9 -4 -24 1 -35 11 -11 10 -30 18 -42 19 -14 1 -24 8
-26 20 -4 16 0 18 28 12 18 -3 38 -6 45 -6z m1262 -12 c-3 -8 -6 -5 -6 6 -1
11 2 17 5 13 3 -3 4 -12 1 -19z m368 -8 c-3 -11 -1 -28 4 -39 14 -26 -11 -50
-34 -31 -12 10 -16 9 -21 -4 -7 -17 -39 -22 -49 -7 -7 12 26 31 53 31 22 0 32
18 32 56 0 15 4 23 10 19 6 -4 8 -15 5 -25z m-1457 -8 c2 -12 10 -22 18 -22 8
0 14 -4 14 -10 0 -15 -37 -12 -70 5 -36 19 -38 32 -7 45 30 12 41 7 45 -18z
m942 8 c9 -16 8 -22 -6 -27 -18 -7 -35 13 -27 34 7 19 21 16 33 -7z m964 4
c20 -19 21 -74 3 -74 -12 0 -47 59 -47 80 0 15 27 12 44 -6z m-2187 -14 c7
-10 31 -24 54 -30 34 -9 38 -14 29 -26 -18 -21 -52 -17 -82 10 -31 30 -38 25
-38 -24 0 -21 -7 -43 -15 -50 -17 -14 -55 -4 -55 15 0 8 -6 18 -12 22 -7 4
-20 16 -28 27 -14 18 -13 18 19 11 30 -6 36 -4 63 29 33 41 48 44 65 16z
m1631 -3 c3 -15 0 -16 -22 -6 -32 15 -34 32 -4 27 13 -2 24 -11 26 -21z m4122
13 c0 -5 -11 -17 -26 -26 -20 -13 -28 -14 -37 -5 -9 10 -8 16 7 27 23 16 56
19 56 4z m390 -9 c0 -11 -4 -23 -10 -26 -6 -4 -10 5 -10 19 0 14 5 26 10 26 6
0 10 -9 10 -19z m-4330 -21 c0 -16 -4 -30 -9 -30 -12 0 -24 37 -16 50 12 20
25 10 25 -20z m500 6 c0 -2 -7 -6 -15 -10 -8 -3 -15 -1 -15 4 0 6 7 10 15 10
8 0 15 -2 15 -4z m3955 -44 c-8 -9 -25 20 -18 31 3 5 10 2 15 -7 6 -10 7 -20
3 -24z m1075 0 c0 -20 -42 -82 -65 -94 -37 -21 -29 47 11 87 29 29 54 33 54 7z
m-1534 -3 c3 -6 1 -16 -4 -21 -13 -13 -45 8 -36 23 7 12 31 11 40 -2z m-3737
-80 c-5 -9 -5 -25 -2 -37 4 -17 1 -22 -14 -22 -35 0 -42 18 -25 63 24 65 36
76 43 41 3 -16 2 -36 -2 -45z m3481 67 c0 -3 -4 -8 -10 -11 -5 -3 -10 -1 -10
4 0 6 5 11 10 11 6 0 10 -2 10 -4z m-4140 -16 c0 -6 -7 -13 -16 -17 -12 -4
-11 -8 8 -17 15 -7 24 -22 26 -41 5 -62 12 -75 36 -75 22 0 36 -16 36 -42 0
-12 -49 -2 -90 19 -17 8 -28 18 -25 23 3 5 0 20 -6 34 -9 19 -9 29 0 39 9 12
7 16 -9 20 -24 6 -28 47 -5 47 8 0 15 5 15 10 0 6 7 10 15 10 8 0 15 -5 15
-10z m344 4 c9 -3 16 -16 16 -29 0 -12 7 -28 15 -35 18 -15 9 -27 -20 -30 -42
-5 -47 -1 -40 29 5 25 3 29 -19 35 -36 9 -34 36 3 36 16 0 36 -3 45 -6z m615
-24 c14 0 21 -6 21 -19 0 -13 8 -21 22 -23 29 -4 38 -38 10 -38 -11 0 -25 7
-32 15 -7 8 -18 15 -26 15 -7 0 -17 7 -22 16 -5 10 -15 14 -21 10 -9 -6 -9
-11 0 -23 10 -12 10 -16 -2 -24 -35 -22 -44 -6 -26 44 4 9 9 24 12 32 4 12 9
14 24 5 11 -5 29 -10 40 -10z m3863 -5 c6 -29 1 -36 -18 -28 -22 8 -16 53 7
53 3 0 9 -11 11 -25z m-4639 -13 c-8 -21 -42 -52 -58 -52 -27 0 -23 15 13 46
38 33 56 36 45 6z m281 -16 c20 -19 36 -41 36 -49 0 -8 9 -26 20 -40 11 -14
17 -32 14 -41 -4 -10 -1 -16 9 -16 8 0 20 -7 27 -15 10 -12 6 -13 -27 -8 -37
6 -38 6 -20 -14 9 -11 17 -27 17 -36 0 -9 5 -19 10 -22 6 -3 10 -15 10 -25 0
-31 21 -68 41 -73 27 -7 24 -49 -6 -75 -14 -12 -29 -22 -34 -22 -13 0 -21 27
-21 70 0 25 -9 52 -25 76 -14 20 -25 43 -25 50 0 7 -10 20 -22 29 -20 13 -21
18 -10 35 16 26 5 69 -24 97 -14 12 -20 25 -14 28 6 4 7 23 4 46 -4 21 -4 39
-2 39 3 0 22 -15 42 -34z m5858 -3 c8 -16 38 -41 73 -61 73 -41 98 -72 58 -72
-12 0 -9 -5 11 -15 15 -8 32 -15 37 -15 16 0 59 -48 59 -66 0 -28 -11 -64 -20
-64 -4 0 -12 11 -18 24 -18 39 -73 96 -114 117 -28 15 -38 26 -38 44 0 18 -10
30 -39 44 -25 13 -41 29 -45 46 -12 48 15 62 36 18z m-2151 1 c27 -10 68 -16
107 -15 55 2 62 0 62 -17 0 -10 -9 -27 -19 -36 -18 -17 -20 -16 -26 3 -5 16
-12 20 -31 15 -13 -3 -30 -2 -37 4 -7 6 -41 13 -75 15 -69 5 -77 9 -69 32 8
19 34 19 88 -1z m-4510 -7 c-1 -12 -15 -9 -19 4 -3 6 1 10 8 8 6 -3 11 -8 11
-12z m604 -51 c-6 -44 -11 -56 -25 -56 -13 0 -16 -6 -12 -25 4 -21 10 -25 43
-25 21 0 41 -5 44 -10 10 -17 -3 -42 -17 -34 -7 5 -29 9 -48 11 -94 6 -133 19
-144 49 -10 25 22 54 60 54 18 0 44 4 58 10 23 8 25 12 15 37 -8 22 -7 30 7
40 25 18 27 12 19 -51z m310 54 c3 -5 -1 -10 -10 -10 -9 0 -13 5 -10 10 3 6 8
10 10 10 2 0 7 -4 10 -10z m4351 -12 c14 -21 -23 -36 -61 -24 -38 12 -49 32
-12 23 12 -4 29 -2 37 3 20 13 27 12 36 -2z m-6286 -8 c0 -5 -2 -10 -4 -10 -3
0 -8 5 -11 10 -3 6 -1 10 4 10 6 0 11 -4 11 -10z m5990 -43 c0 -5 -8 -6 -18
-3 -12 4 -26 -1 -37 -14 -10 -11 -22 -20 -27 -20 -12 0 1 63 15 72 12 7 67
-21 67 -35z m-725 13 c3 -5 1 -10 -4 -10 -6 0 -11 5 -11 10 0 6 2 10 4 10 3 0
8 -4 11 -10z m-2820 -25 c0 -13 -8 -21 -22 -23 -19 -3 -23 1 -23 23 0 22 4 26
23 23 14 -2 22 -10 22 -23z m3630 13 c34 -15 32 -38 -2 -38 -37 0 -55 13 -47
33 7 20 15 21 49 5z m-4801 -12 l27 -14 -31 -4 c-32 -5 -46 4 -35 22 8 13 8
13 39 -4z m1066 -6 c13 -25 5 -56 -17 -64 -25 -10 -36 9 -29 48 8 40 29 47 46
16z m-119 -25 c-4 -40 -8 -45 -37 -45 -18 0 -24 5 -24 21 0 35 19 60 43 57 18
-2 21 -8 18 -33z m4199 25 c0 -5 -6 -10 -14 -10 -8 0 -18 5 -21 10 -3 6 3 10
14 10 12 0 21 -4 21 -10z m-5260 -40 c0 -22 -14 -40 -31 -40 -21 0 -26 29 -8
47 12 12 39 7 39 -7z m4515 11 c9 -16 -38 -52 -63 -49 -34 4 -31 21 8 40 40
21 47 22 55 9z m-5610 -11 c-3 -5 -10 -10 -16 -10 -5 0 -9 5 -9 10 0 6 7 10
16 10 8 0 12 -4 9 -10z m5262 4 c-3 -3 -12 -4 -19 -1 -8 3 -5 6 6 6 11 1 17
-2 13 -5z m2243 -14 c0 -11 -4 -20 -10 -20 -5 0 -10 9 -10 20 0 11 5 20 10 20
6 0 10 -9 10 -20z m-1752 -25 c-3 -20 -34 -43 -43 -33 -4 3 1 21 10 38 17 33
40 30 33 -5z m-77 2 c-13 -13 -26 -3 -16 12 3 6 11 8 17 5 6 -4 6 -10 -1 -17z
m566 17 c-3 -3 -12 -4 -19 -1 -8 3 -5 6 6 6 11 1 17 -2 13 -5z m185 -6 c9 -30
-7 -81 -29 -89 -30 -11 -36 2 -22 55 8 33 16 46 29 46 10 0 20 -6 22 -12z
m-6671 -32 l32 -27 26 23 c14 13 27 26 29 31 6 13 59 7 72 -8 10 -12 9 -16 -4
-21 -9 -3 -23 -4 -31 0 -8 3 -15 1 -15 -3 0 -5 -11 -19 -25 -32 -31 -30 -31
-39 1 -39 14 0 34 -5 45 -10 16 -9 19 -7 19 14 0 19 8 27 36 36 19 7 37 10 39
8 3 -2 0 -21 -6 -42 -18 -64 -73 -72 -164 -25 -47 24 -63 28 -81 20 -18 -8
-28 -4 -60 25 -22 19 -42 34 -46 34 -12 0 -9 19 5 36 19 23 90 12 128 -20z
m6259 -3 c0 -24 -25 -9 -28 17 -3 21 -2 22 12 11 9 -7 16 -20 16 -28z m1547 2
c-4 -8 -11 -15 -17 -15 -14 0 -13 27 3 33 16 6 21 1 14 -18z m-5492 6 c3 -6
-3 -15 -14 -20 -15 -9 -20 -7 -24 9 -4 15 0 20 13 20 11 0 21 -4 25 -9z m4030
-12 c0 -7 -8 -15 -17 -17 -18 -3 -25 18 -11 32 10 10 28 1 28 -15z m-745 -14
c14 -17 5 -23 -40 -27 -19 -2 -26 2 -28 20 -3 18 1 22 26 22 16 0 35 -7 42
-15z m-4174 -30 c35 -35 45 -75 19 -75 -8 0 -15 6 -15 13 0 16 -37 51 -62 60
-10 4 -18 13 -18 22 0 27 42 16 76 -20z m5354 1 c0 -19 -17 -29 -25 -16 -3 5
-17 10 -31 10 -13 0 -24 5 -24 10 0 6 18 10 40 10 28 0 40 -4 40 -14z m-4535
-6 c3 -6 -1 -13 -10 -16 -19 -8 -30 0 -20 15 8 14 22 14 30 1z m3570 -20 c3
-5 1 -10 -4 -10 -6 0 -11 5 -11 10 0 6 2 10 4 10 3 0 8 -4 11 -10z m-4135 -21
c15 -27 43 -59 52 -59 3 0 10 9 13 20 7 23 25 27 25 6 0 -7 7 -19 15 -26 20
-16 19 -40 -1 -40 -9 0 -18 -10 -22 -22 l-5 -22 -8 22 c-7 19 -12 20 -35 12
-28 -11 -43 -1 -44 27 0 6 -10 19 -21 27 -20 13 -21 18 -9 45 15 36 25 39 40
10z m4043 2 c10 -10 -15 -61 -30 -61 -15 0 -17 16 -3 25 18 11 10 24 -17 27
-14 2 -29 9 -31 17 -4 11 3 12 34 7 22 -4 42 -11 47 -15z m2002 -1 c3 -11 -1
-34 -9 -52 -8 -18 -16 -42 -18 -52 -3 -18 -63 -44 -75 -33 -2 3 7 28 21 56 14
28 26 57 26 65 0 14 25 35 42 36 4 0 9 -9 13 -20z m-7925 0 c0 -12 -17 -12
-45 0 -17 7 -15 9 13 9 17 1 32 -3 32 -9z m2184 1 c3 -4 -1 -17 -9 -27 -10
-15 -16 -16 -26 -7 -6 6 -9 19 -6 27 7 17 32 22 41 7z m536 -21 c0 -23 -5 -30
-19 -30 -29 0 -36 18 -15 41 24 27 34 24 34 -11z m281 20 c27 -15 24 -37 -7
-44 -35 -9 -49 5 -35 33 13 24 15 25 42 11z m-2943 -16 c12 -8 22 -26 22 -38
0 -17 7 -26 25 -30 27 -7 33 -34 13 -54 -20 -20 4 -35 35 -23 15 6 27 14 27
18 0 5 25 9 56 10 53 1 56 0 49 -20 -4 -12 -9 -34 -12 -50 -7 -34 -17 -41 -44
-27 -18 10 -25 8 -50 -16 -16 -15 -29 -31 -29 -36 0 -12 48 -10 55 2 9 15 25
12 25 -5 0 -8 -6 -15 -13 -15 -7 0 -18 -9 -25 -20 -7 -11 -23 -20 -37 -20 -21
0 -25 5 -25 30 0 17 -4 30 -9 30 -5 0 -23 3 -40 6 -23 5 -31 3 -31 -8 0 -8 -6
-22 -13 -31 -10 -15 -19 -16 -52 -9 l-40 9 25 12 c21 10 28 24 36 66 9 52 9
54 -15 65 -18 8 -26 8 -31 0 -4 -6 -10 5 -13 26 -7 41 -3 54 18 54 11 0 12 -6
5 -26 -10 -25 -9 -25 22 -19 45 10 68 23 68 39 0 8 -6 16 -14 19 -21 8 -49 54
-41 67 9 14 27 13 53 -6z m6232 -18 c0 -18 -19 -33 -53 -41 -37 -10 -37 19 1
39 34 19 52 20 52 2z m-6010 -6 c0 -5 -6 -10 -14 -10 -8 0 -18 5 -21 10 -3 6
3 10 14 10 12 0 21 -4 21 -10z m5310 -7 c26 -23 25 -35 -2 -31 -15 2 -24 11
-26 26 -4 27 1 28 28 5z m210 2 c24 -29 -11 -46 -51 -24 -16 8 -18 13 -8 25
15 18 43 18 59 -1z m-4040 -35 c0 -4 -9 -10 -21 -13 -23 -6 -35 13 -25 39 6
15 8 15 26 -1 11 -10 20 -21 20 -25z m4362 21 c-2 -10 4 -12 23 -7 27 7 33 -5
11 -23 -11 -9 -25 -9 -55 -1 -23 6 -46 8 -51 5 -6 -3 -20 -28 -31 -56 -14 -32
-28 -49 -39 -49 -10 0 -23 -7 -30 -15 -7 -8 -18 -15 -25 -15 -7 0 -16 -11 -19
-25 -4 -15 -14 -25 -25 -25 -10 0 -26 -9 -36 -20 -20 -22 -73 -27 -106 -9 -30
16 -13 29 39 29 59 0 96 23 88 55 -5 19 0 24 33 33 45 14 91 72 91 115 l0 28
68 -3 c50 -2 66 -6 64 -17z m1688 11 c0 -13 -24 -39 -42 -45 -29 -10 -29 22 0
37 31 17 42 19 42 8z m-1940 -57 c0 -8 -6 -15 -14 -15 -17 0 -28 14 -19 24 12
12 33 6 33 -9z m-2933 -31 c-9 -9 -28 6 -21 18 4 6 10 6 17 -1 6 -6 8 -13 4
-17z m5143 6 c0 -5 -7 -10 -15 -10 -8 0 -15 5 -15 10 0 6 7 10 15 10 8 0 15
-4 15 -10z m-2252 -31 c4 -24 -28 -32 -49 -13 -10 9 -16 21 -13 26 9 15 59 4
62 -13z m2172 -23 c0 -2 -3 -11 -6 -20 -9 -23 -24 -20 -24 4 0 11 7 20 15 20
8 0 15 -2 15 -4z m372 -78 c-1 -9 2 -19 8 -23 21 -13 9 -31 -39 -58 -42 -23
-53 -26 -74 -16 -20 9 -34 8 -69 -5 -47 -18 -160 -19 -156 -1 2 6 10 9 18 8 8
-1 40 5 70 13 38 11 73 14 113 10 53 -7 59 -5 82 20 28 31 32 54 9 54 -8 0
-12 5 -9 11 11 17 50 6 47 -13z m-7982 -75 c0 -20 -28 -53 -45 -53 -19 0 -48
38 -42 55 9 22 87 21 87 -2z m-175 -114 c4 -5 -6 -15 -22 -21 -16 -6 -34 -20
-39 -32 -6 -13 -22 -23 -45 -27 -20 -3 -55 -15 -78 -27 -57 -30 -131 -28 -131
3 0 13 43 25 90 25 16 0 36 10 51 26 18 19 31 24 54 21 21 -3 38 2 58 19 31
26 52 30 62 13z m7825 -34 c0 -20 -40 -35 -62 -24 -9 5 -32 9 -50 10 -27 0
-29 2 -13 9 11 4 32 6 46 3 15 -3 30 0 33 6 11 17 46 13 46 -4z m-7739 -108
c-16 -16 -26 20 -10 40 13 15 14 14 17 -7 2 -12 -1 -27 -7 -33z m-165 -22 c19
-14 19 -14 -3 -15 -30 0 -54 10 -47 21 8 13 28 11 50 -6z m8004 -89 c0 -21
-20 -30 -33 -17 -9 9 -8 14 3 21 21 14 30 12 30 -4z m-8325 -86 c3 -5 -3 -10
-15 -10 -12 0 -18 5 -15 10 3 6 10 10 15 10 5 0 12 -4 15 -10z m-5 -119 c11
-22 0 -34 -24 -25 -20 8 -21 44 -1 44 8 0 19 -9 25 -19z m8397 -55 c-8 -20
-57 -21 -57 -3 0 17 42 38 54 27 5 -5 6 -16 3 -24z m286 -12 c11 -12 -18 -44
-40 -44 -30 0 -30 24 0 38 27 13 32 14 40 6z m-8413 -24 c0 -15 -7 -20 -25
-20 -18 0 -25 5 -25 20 0 15 7 20 25 20 18 0 25 -5 25 -20z m8060 -5 c0 -9 -9
-15 -25 -15 -24 0 -32 10 -18 23 12 13 43 7 43 -8z m267 -42 c-21 -49 -66 -86
-92 -77 -14 6 -8 16 36 55 62 56 74 60 56 22z m148 -208 c0 -18 -61 -58 -76
-50 -14 9 2 41 29 58 32 19 47 17 47 -8z m-165 -285 c0 -19 -48 -60 -70 -60
-27 0 -25 18 6 46 26 25 64 32 64 14z m-8676 -46 c16 -6 23 -44 8 -44 -16 0
-52 32 -47 41 7 11 17 11 39 3z m204 -17 c2 -12 -3 -17 -17 -17 -12 0 -21 6
-21 13 0 31 32 34 38 4z m-115 -2 c-6 -17 -25 -15 -31 3 -2 7 5 12 17 12 14 0
19 -5 14 -15z m145 -162 c-4 -20 -54 -31 -70 -15 -17 17 1 32 38 32 28 0 35
-4 32 -17z m162 -10 c0 -17 -24 -43 -40 -43 -25 0 -27 35 -3 48 16 9 43 6 43
-5z m55 -53 c3 -5 -1 -10 -10 -10 -9 0 -13 5 -10 10 3 6 8 10 10 10 2 0 7 -4
10 -10z m-472 -241 c-12 -12 -63 -5 -63 9 0 4 10 12 23 18 27 13 59 -8 40 -27z
m-29 -214 c3 -9 0 -15 -9 -15 -8 0 -15 7 -15 15 0 8 4 15 9 15 5 0 11 -7 15
-15z m486 -144 c0 -5 -7 -11 -15 -15 -9 -3 -15 0 -15 9 0 8 7 15 15 15 8 0 15
-4 15 -9z m-220 -25 c0 -3 -4 -8 -10 -11 -5 -3 -10 -1 -10 4 0 6 5 11 10 11 6
0 10 -2 10 -4z m-210 -96 c0 -5 -9 -10 -20 -10 -11 0 -20 5 -20 10 0 6 9 10
20 10 11 0 20 -4 20 -10z m6127 -350 c7 -10 24 -21 38 -24 14 -4 25 -12 25
-19 0 -16 53 -57 73 -57 7 0 25 -24 38 -52 22 -48 27 -53 54 -51 34 3 56 -12
48 -33 -4 -10 -23 -14 -68 -14 l-63 0 -6 45 c-8 50 -48 92 -98 102 -21 4 -27
10 -23 22 10 33 -20 55 -81 61 -66 6 -81 24 -32 39 41 12 78 5 95 -19z m-360
-16 c-9 -9 -28 6 -21 18 4 6 10 6 17 -1 6 -6 8 -13 4 -17z m2773 -44 c0 -11
-7 -20 -15 -20 -17 0 -18 2 -9 24 9 23 24 20 24 -4z m-2435 -65 c0 -20 -25
-31 -51 -21 -12 5 -12 9 -2 26 16 26 53 23 53 -5z m-3493 -32 c22 -20 23 -46
3 -63 -8 -7 -15 -19 -15 -26 0 -8 -4 -14 -10 -14 -5 0 -10 -11 -10 -25 0 -14
-4 -34 -10 -45 -5 -11 -15 -29 -20 -40 -15 -28 -4 -43 21 -29 28 15 36 4 10
-13 -12 -7 -21 -19 -21 -26 0 -8 -9 -25 -20 -39 -11 -14 -20 -36 -20 -49 0
-17 -7 -25 -24 -30 -13 -3 -26 -14 -29 -25 -3 -10 -10 -19 -15 -19 -13 0 -14
98 0 106 5 4 17 22 25 41 12 31 12 38 -1 59 -15 21 -15 24 3 33 10 6 26 29 35
51 9 22 23 43 31 46 10 4 15 20 15 46 0 38 14 78 27 78 4 0 15 -7 25 -17z
m-482 0 c0 -5 -5 -15 -10 -23 -8 -12 -10 -11 -10 8 0 12 5 22 10 22 6 0 10 -3
10 -7z m1088 -4 c-2 -6 -8 -10 -13 -10 -5 0 -11 4 -13 10 -2 6 4 11 13 11 9 0
15 -5 13 -11z m-950 -32 c17 6 15 -12 -3 -31 -8 -8 -15 -19 -15 -25 0 -5 -5
-13 -11 -17 -8 -5 -10 3 -7 25 2 17 3 31 2 31 -6 0 -73 -70 -84 -87 -8 -13
-13 -14 -16 -5 -3 7 -13 19 -21 27 -13 14 -11 19 16 44 17 16 31 37 31 46 0
10 6 15 13 12 49 -18 57 -18 57 0 1 16 2 16 13 -3 7 -12 18 -19 25 -17z m3882
8 c0 -8 -7 -15 -15 -15 -8 0 -15 7 -15 15 0 8 7 15 15 15 8 0 15 -7 15 -15z
m297 -41 c-12 -13 -37 6 -37 28 l0 22 22 -21 c12 -13 19 -25 15 -29z m-4411 9
c-3 -8 -6 -17 -6 -19 0 -2 -9 -4 -20 -4 -19 0 -28 28 -14 42 11 12 45 -5 40
-19z m3864 -3 c0 -13 -50 -41 -60 -35 -18 11 -11 35 13 44 23 9 47 4 47 -9z
m187 -7 c6 -16 -34 -35 -57 -28 -22 7 -27 31 -7 39 20 8 60 2 64 -11z m461 1
c33 -23 29 -48 -5 -39 -34 8 -53 23 -53 41 0 19 30 18 58 -2z m-349 -35 c7
-16 12 -32 10 -33 -2 -2 -24 -7 -48 -11 -34 -6 -42 -4 -39 6 3 8 14 15 26 17
24 4 29 21 10 40 -9 9 -8 12 8 12 12 0 24 -12 33 -31z m-3201 -11 c4 -36 -20
-38 -36 -3 -16 35 -15 37 11 33 16 -2 23 -11 25 -30z m-540 -6 c4 -23 -4 -27
-27 -13 -17 11 -7 45 12 39 6 -3 13 -14 15 -26z m-518 -12 c0 -23 -4 -30 -20
-30 -13 0 -20 -7 -20 -20 0 -21 -40 -38 -59 -25 -15 9 -14 25 2 25 15 0 67 54
67 69 0 6 7 11 15 11 10 0 15 -10 15 -30z m6569 -22 c-17 -31 -23 -9 -8 28 9
22 13 25 16 12 2 -9 -1 -27 -8 -40z m-2209 2 c0 -5 -7 -10 -15 -10 -8 0 -15 5
-15 10 0 6 7 10 15 10 8 0 15 -4 15 -10z m852 -61 c7 -71 -33 -82 -52 -15 -14
52 -9 65 24 59 20 -4 25 -12 28 -44z m-1063 25 c11 -10 -26 -35 -48 -32 -30 4
-41 34 -14 41 17 4 53 -1 62 -9z m-3755 -37 c-4 -12 -18 -17 -45 -17 -32 0
-39 -3 -39 -20 0 -10 8 -24 18 -29 15 -8 19 -23 21 -66 1 -30 -1 -55 -3 -55
-16 0 -35 35 -30 55 7 28 -18 45 -67 45 -45 0 -72 26 -57 54 20 37 49 50 108
49 30 -1 62 3 70 7 19 11 33 -2 24 -23z m4494 -1 c3 -13 -1 -17 -14 -14 -11 2
-20 11 -22 22 -3 13 1 17 14 14 11 -2 20 -11 22 -22z m-354 -2 c9 -23 7 -54
-3 -54 -10 0 -41 45 -41 60 0 16 37 12 44 -6z m266 9 c0 -5 -4 -15 -10 -23
-11 -18 -25 -7 -17 15 6 15 27 21 27 8z m-4925 -43 c7 -23 -1 -40 -20 -40 -16
0 -29 35 -20 50 10 17 33 11 40 -10z m1411 -7 c12 -48 8 -80 -14 -108 -12 -15
-22 -33 -22 -40 0 -7 -11 -16 -25 -19 -14 -4 -25 -13 -25 -22 0 -8 -7 -17 -15
-20 -8 -4 -15 -15 -15 -26 0 -14 -14 -26 -50 -41 -50 -22 -66 -41 -53 -61 14
-19 9 -79 -6 -84 -10 -3 -12 0 -8 11 4 11 -1 21 -14 27 -17 10 -20 20 -17 73
l3 62 38 6 c48 8 84 42 98 92 7 28 14 36 21 29 15 -15 55 5 62 32 3 11 6 39 6
62 0 59 24 77 36 27z m3085 17 c21 -12 26 -50 7 -50 -19 0 -78 38 -78 50 0 13
46 13 71 0z m89 -5 c0 -8 -2 -15 -4 -15 -2 0 -6 7 -10 15 -3 8 -1 15 4 15 6 0
10 -7 10 -15z m-4290 -25 c0 -13 -10 -22 -32 -28 -31 -8 -33 -12 -36 -54 -2
-26 -10 -52 -18 -58 -7 -7 -14 -19 -14 -27 0 -10 -6 -13 -16 -9 -9 3 -20 6
-25 6 -14 0 -10 33 6 54 8 11 15 37 15 58 0 34 3 39 38 53 20 8 44 19 52 24
19 11 30 5 30 -19z m765 10 c7 -23 -2 -60 -15 -60 -11 0 -40 29 -40 40 0 11
29 40 40 40 5 0 12 -9 15 -20z m120 -29 c0 -42 -21 -52 -36 -17 -14 31 -5 59
18 54 13 -2 18 -13 18 -37z m4230 29 c3 -5 1 -10 -4 -10 -6 0 -11 5 -11 10 0
6 2 10 4 10 3 0 8 -4 11 -10z m-4115 -59 c0 -23 -23 -34 -39 -18 -12 12 -15
40 -5 50 11 11 44 -13 44 -32z m-2450 22 c0 -14 -19 -38 -25 -32 -8 8 5 39 16
39 5 0 9 -3 9 -7z m1265 -3 c3 -6 -1 -13 -10 -16 -19 -8 -30 0 -20 15 8 14 22
14 30 1z m4675 -11 c0 -5 9 -9 20 -9 11 0 20 -4 20 -8 0 -15 -24 -32 -46 -32
-17 0 -23 7 -26 30 -3 17 -3 32 0 34 6 7 32 -5 32 -15z m160 8 c0 -17 -45 -38
-65 -31 -18 7 -19 16 -3 32 17 17 68 15 68 -1z m496 -11 l26 -23 -43 -6 c-48
-6 -59 -3 -59 19 0 11 24 28 48 33 2 1 14 -10 28 -23z m-181 4 c-3 -5 -14 -10
-23 -10 -15 0 -15 2 -2 10 20 13 33 13 25 0z m-729 -17 c23 -31 17 -50 -18
-56 -18 -2 -44 0 -58 5 -23 9 -36 6 -92 -23 -28 -14 -65 -10 -72 7 -10 25 -1
30 65 32 35 2 69 8 76 14 7 5 24 8 38 6 18 -4 26 0 30 13 8 24 14 24 31 2z
m1054 7 c0 -5 -5 -10 -11 -10 -5 0 -7 5 -4 10 3 6 8 10 11 10 2 0 4 -4 4 -10z
m-83 -15 c-6 -7 -15 -11 -19 -8 -14 8 -8 19 12 20 16 1 17 -1 7 -12z m-4639
-45 c2 -19 4 -48 4 -65 0 -16 6 -35 13 -42 7 -7 11 -22 8 -33 -3 -11 0 -27 7
-36 11 -12 10 -18 -3 -31 -34 -34 -65 20 -45 78 7 20 5 35 -5 56 -19 37 -30
90 -22 103 14 23 39 5 43 -30z m4260 12 c4 -23 -12 -30 -23 -11 -4 5 -18 9
-30 7 -13 -2 -24 2 -25 7 0 6 9 11 20 11 11 1 24 4 27 8 12 12 28 0 31 -22z
m-4564 8 c23 -8 25 -13 16 -35 -5 -14 -7 -25 -3 -25 4 0 -3 -10 -14 -22 -14
-15 -24 -44 -29 -83 -7 -54 -9 -56 -14 -26 -5 34 -11 39 -63 60 -30 12 -27 36
4 28 12 -3 20 2 24 14 4 10 15 24 26 30 14 7 18 16 14 30 -6 17 0 39 10 39 2
0 15 -4 29 -10z m547 -7 c1 -10 1 -22 0 -26 -2 -14 29 -19 44 -7 12 10 15 9
15 -4 0 -18 -46 -40 -67 -32 -15 6 -18 86 -3 86 6 0 11 -8 11 -17z m119 4 c0
-8 -3 -17 -7 -20 -9 -9 -34 13 -27 24 8 14 34 11 34 -4z m-863 -12 c21 -15 36
-52 24 -60 -7 -4 -71 58 -71 69 0 11 25 6 47 -9z m6267 -11 c11 -28 6 -43 -15
-49 -28 -9 -40 11 -26 42 12 27 32 30 41 7z m-6759 -4 c-3 -5 -10 -10 -16 -10
-5 0 -9 5 -9 10 0 6 7 10 16 10 8 0 12 -4 9 -10z m5155 -25 c0 -14 -4 -25 -9
-25 -12 0 -23 29 -15 41 10 18 24 9 24 -16z m-1009 -22 c18 -17 41 -28 63 -30
19 -1 49 -9 66 -18 36 -18 50 -14 30 10 -25 30 -2 25 51 -10 29 -19 60 -35 69
-35 20 0 72 -49 67 -63 -7 -22 -74 -20 -106 4 -24 18 -38 21 -74 16 -34 -5
-46 -3 -51 8 -3 8 -22 21 -42 30 -20 8 -42 21 -48 29 -6 8 -33 16 -59 19 -65
6 -80 22 -47 47 34 26 47 25 81 -7z m2530 -26 c-10 -9 -11 -8 -5 6 3 10 9 15
12 12 3 -3 0 -11 -7 -18z m-1943 -4 c5 -17 -26 -29 -40 -15 -6 6 -7 15 -3 22
9 14 37 9 43 -7z m2062 -9 c0 -8 -3 -14 -7 -15 -5 0 -16 -2 -25 -4 -19 -3 -61
23 -54 34 8 13 86 0 86 -15z m-534 -9 c-11 -8 -33 -15 -49 -15 -25 0 -28 2
-17 15 7 8 28 15 49 15 34 -1 35 -2 17 -15z m-5136 -15 c0 -28 -21 -70 -36
-70 -37 0 -9 89 29 90 4 0 7 -9 7 -20z m-399 -43 c-16 -16 -26 20 -10 40 13
15 14 14 17 -7 2 -12 -1 -27 -7 -33z m5861 33 c22 0 22 1 4 -42 -18 -41 -51
-58 -114 -58 -26 0 -54 -4 -61 -9 -18 -12 -51 4 -51 23 0 14 58 43 75 38 28
-9 72 10 89 39 13 22 21 28 29 20 6 -6 19 -11 29 -11z m-6438 -17 c4 -9 0 -23
-9 -32 -14 -14 -17 -14 -25 -2 -9 16 4 51 19 51 5 0 12 -8 15 -17z m1086 7 c0
-5 -7 -10 -16 -10 -8 0 -12 5 -9 10 3 6 10 10 16 10 5 0 9 -4 9 -10z m3414 4
c9 -3 16 -17 16 -29 0 -13 5 -27 10 -30 6 -3 10 -17 10 -31 0 -17 -6 -24 -19
-24 -22 0 -35 30 -26 60 4 14 2 20 -8 20 -16 0 -30 24 -20 34 8 8 17 8 37 0z
m416 -8 c0 -8 3 -23 7 -33 6 -16 5 -16 -10 -4 -18 15 -23 51 -7 51 6 0 10 -6
10 -14z m-4518 -28 c-6 -6 -16 -7 -23 -3 -9 6 -7 12 7 22 21 15 34 -1 16 -19z
m298 3 c0 -23 -28 -48 -39 -35 -13 13 6 54 24 54 8 0 15 -8 15 -19z m-435 -1
c4 -6 2 -17 -5 -25 -6 -7 -10 -26 -8 -42 2 -23 -1 -29 -22 -31 -13 -2 -30 -13
-38 -23 -7 -10 -17 -19 -23 -19 -14 0 -11 22 8 42 9 10 17 35 18 55 2 30 7 39
26 44 35 10 37 10 44 -1z m370 -25 c0 -11 -10 -24 -22 -30 -13 -5 -23 -13 -23
-17 0 -5 -4 -8 -9 -8 -10 0 -2 51 12 68 15 19 42 10 42 -13z m4051 -9 c-3 -12
1 -32 10 -44 17 -25 11 -42 -16 -42 -10 0 -22 -5 -25 -10 -12 -20 -23 0 -20
37 2 20 11 40 19 45 9 5 16 18 16 29 0 12 4 17 11 13 6 -3 8 -16 5 -28z m392
12 c7 -7 12 -20 12 -30 0 -10 10 -20 25 -24 31 -8 33 -24 4 -24 -25 0 -93 65
-84 80 8 14 28 13 43 -2z m-5200 -26 c2 -7 -3 -12 -12 -12 -9 0 -16 7 -16 16
0 17 22 14 28 -4z m4180 1 c-2 -10 -10 -18 -18 -18 -8 0 -16 8 -18 18 -2 12 3
17 18 17 15 0 20 -5 18 -17z m956 -29 c5 -14 2 -15 -21 -10 -16 4 -40 10 -55
13 -34 6 -36 21 -5 32 26 10 71 -9 81 -35z m-4525 -3 c-15 -5 -22 6 -14 19 6
9 10 9 16 -1 5 -8 4 -15 -2 -18z m-32 -3 c-3 -8 -6 -5 -6 6 -1 11 2 17 5 13 3
-3 4 -12 1 -19z m300 6 c8 -22 -15 -44 -26 -25 -10 16 -4 41 10 41 5 0 12 -7
16 -16z m3723 -3 c0 -19 -22 -23 -38 -7 -15 15 -14 16 11 16 15 0 27 -4 27 -9z
m-94 -47 c6 -8 23 -14 38 -14 24 0 26 -3 21 -22 -15 -53 -28 -78 -42 -78 -11
0 -13 5 -8 18 4 9 10 26 13 37 5 19 4 19 -15 2 -19 -16 -20 -16 -33 8 -10 19
-19 23 -36 19 -26 -7 -41 14 -30 42 5 13 14 15 44 9 20 -3 42 -13 48 -21z
m554 0 c0 -10 -7 -14 -22 -12 -32 5 -35 28 -4 28 17 0 26 -5 26 -16z m-3930
-9 c0 -19 -24 -29 -46 -21 -13 5 -14 9 -4 21 16 20 50 19 50 0z m-630 -9 c0
-8 -4 -17 -9 -21 -12 -7 -24 12 -16 25 9 15 25 12 25 -4z m50 -12 c0 -8 -4
-12 -10 -9 -5 3 -10 13 -10 21 0 8 5 12 10 9 6 -3 10 -13 10 -21z m181 -10 c6
-8 17 -14 25 -14 7 0 16 -5 20 -11 4 -7 -3 -10 -19 -7 -13 1 -36 -4 -51 -11
-31 -17 -43 -9 -52 35 -6 30 -5 30 30 26 19 -2 41 -10 47 -18z m4489 2 c5 -13
14 -27 19 -31 17 -10 13 -25 -8 -25 -10 0 -24 7 -31 15 -9 11 -16 12 -25 5
-14 -11 -25 -3 -25 18 0 17 28 41 48 42 7 0 17 -11 22 -24z m-946 -2 c9 -8 16
-29 16 -45 0 -32 24 -40 44 -15 13 17 100 26 104 11 1 -5 -14 -12 -35 -15 -36
-5 -38 -7 -46 -55 -14 -82 -46 -99 -86 -44 -18 24 -20 34 -11 42 8 9 14 8 21
-6 8 -14 14 -16 25 -6 18 15 9 29 -21 29 -25 0 -27 3 -39 76 -4 27 0 44 10 44
1 0 10 -7 18 -16z m356 6 c0 -13 -11 -13 -30 0 -12 8 -11 10 8 10 12 0 22 -4
22 -10z m60 -31 c0 -17 -4 -28 -10 -24 -5 3 -10 17 -10 31 0 13 5 24 10 24 6
0 10 -14 10 -31z m-3400 -9 c0 -22 -26 -50 -46 -50 -20 0 -17 23 7 54 22 28
39 27 39 -4z m-720 -7 c-5 -16 -8 -37 -7 -47 3 -28 -21 -31 -28 -4 -8 31 10
78 29 78 12 0 13 -6 6 -27z m4245 -4 c4 -6 19 -7 35 -4 36 8 49 -11 18 -26
-29 -13 -78 3 -78 26 0 17 16 20 25 4z m-4464 -15 c12 -11 15 -21 9 -33 -4 -9
-13 -27 -18 -41 -10 -24 -11 -23 -11 13 -1 20 -3 37 -5 37 -2 0 -20 -7 -41
-15 -38 -17 -79 -12 -72 8 2 7 14 14 28 15 13 2 32 10 43 18 27 18 45 18 67
-2z m3759 1 c7 -8 20 -15 29 -15 14 -1 14 -2 -1 -14 -26 -19 -22 -32 17 -62
42 -32 43 -41 8 -55 -23 -8 -30 -7 -43 10 -8 11 -28 25 -43 30 -27 10 -27 12
-13 33 20 28 20 38 1 38 -19 0 -19 5 2 30 21 24 27 25 43 5z m1000 -1 c0 -17
-22 -14 -28 4 -2 7 3 12 12 12 9 0 16 -7 16 -16z m-345 -14 c3 -5 2 -10 -4
-10 -5 0 -13 5 -16 10 -3 6 -2 10 4 10 5 0 13 -4 16 -10z m691 -52 c29 -45 30
-58 6 -58 -24 0 -46 25 -60 69 -23 67 9 60 54 -11z m-4996 42 c0 -5 -4 -10
-10 -10 -5 0 -10 5 -10 10 0 6 5 10 10 10 6 0 10 -4 10 -10z m567 -28 c-9 -10
-17 -26 -17 -35 0 -25 -19 -21 -32 7 -14 32 -5 53 24 58 33 6 45 -8 25 -30z
m4587 23 c3 -8 1 -15 -4 -15 -6 0 -10 7 -10 15 0 8 2 15 4 15 2 0 6 -7 10 -15z
m-5689 -11 c0 -18 -54 -76 -65 -69 -14 9 -13 41 3 65 13 22 62 25 62 4z m4685
-9 c0 -8 -4 -15 -10 -15 -5 0 -10 7 -10 15 0 8 5 15 10 15 6 0 10 -7 10 -15z
m-4100 -1 c0 -14 -43 -42 -56 -37 -13 5 -12 8 2 24 16 18 54 27 54 13z m3974
-12 c5 -9 -50 -72 -64 -72 -13 0 -13 6 5 40 17 33 47 50 59 32z m286 -8 c0 -9
-5 -14 -12 -12 -18 6 -21 28 -4 28 9 0 16 -7 16 -16z m146 1 c4 -8 3 -22 0
-31 -5 -12 -9 -14 -20 -5 -7 6 -21 8 -31 5 -17 -7 -17 -6 0 19 19 30 43 35 51
12z m214 -14 c0 -5 -7 -14 -15 -21 -9 -7 -14 -19 -11 -26 3 -7 -6 -15 -20 -18
-15 -4 -24 -14 -24 -26 0 -23 -5 -24 -49 -9 -23 8 -31 17 -31 35 0 24 14 32
25 14 3 -5 13 -10 21 -10 8 0 13 4 10 9 -11 17 6 41 29 41 13 0 27 5 30 10 8
12 35 13 35 1z m-4710 -10 c0 -6 -4 -13 -10 -16 -5 -3 -10 1 -10 9 0 9 5 16
10 16 6 0 10 -4 10 -9z m4830 -5 c0 -11 -19 -15 -25 -6 -3 5 1 10 9 10 9 0 16
-2 16 -4z m-5463 -32 c8 -22 -11 -37 -36 -29 -23 7 -28 30 -8 38 23 10 38 7
44 -9z m978 -3 c3 -5 1 -12 -5 -16 -5 -3 -10 1 -10 9 0 18 6 21 15 7z m-348
-34 c-17 -27 -12 -46 12 -40 14 3 23 -6 37 -39 10 -24 20 -46 22 -50 2 -5 -5
-8 -16 -8 -12 0 -23 9 -27 20 -4 12 -24 33 -46 47 -28 19 -38 31 -33 42 3 9 8
24 11 33 5 17 31 28 46 20 4 -2 2 -14 -6 -25z m3658 23 c3 -5 -3 -10 -14 -10
-12 0 -21 5 -21 10 0 6 6 10 14 10 8 0 18 -4 21 -10z m867 -2 c-9 -9 -15 -9
-24 0 -9 9 -7 12 12 12 19 0 21 -3 12 -12z m-3908 -14 c9 -23 7 -52 -4 -59
-11 -7 -39 45 -33 63 7 17 30 15 37 -4z m3316 -24 c0 -25 20 -37 64 -38 42 -2
105 -35 87 -46 -6 -4 -11 -16 -11 -27 0 -23 -9 -24 -36 -5 -11 8 -40 17 -65
21 -43 6 -47 10 -68 56 -24 57 -26 66 -8 72 17 6 37 -12 37 -33z m-3220 5 c0
-16 -35 -21 -45 -6 -4 8 9 15 38 20 4 0 7 -6 7 -14z m3538 1 c19 0 32 -5 33
-13 3 -26 4 -30 22 -47 16 -16 23 -36 13 -36 -3 0 -21 9 -40 21 -20 11 -48 19
-63 17 -20 -2 -28 2 -28 12 0 8 -4 21 -8 28 -12 18 2 35 22 26 9 -4 31 -8 49
-8z m-3998 -32 c0 -24 -14 -32 -25 -14 -9 14 4 52 16 45 5 -4 9 -17 9 -31z
m155 26 c6 -10 -53 -45 -62 -36 -11 11 14 32 54 45 1 1 4 -3 8 -9z m-1165 -19
c0 -6 -4 -13 -10 -16 -5 -3 -10 1 -10 9 0 9 5 16 10 16 6 0 10 -4 10 -9z
m1078 -21 c9 -24 7 -33 -9 -55 -22 -27 -49 -34 -49 -11 0 7 7 19 15 26 8 7 15
22 15 35 0 18 7 35 16 35 1 0 7 -13 12 -30z m4117 10 c-3 -11 1 -30 10 -44 17
-26 17 -91 0 -91 -5 0 -11 14 -13 32 -2 17 -10 37 -18 43 -17 15 -18 52 -2 68
18 18 30 14 23 -8z m60 10 c3 -5 1 -10 -4 -10 -6 0 -11 5 -11 10 0 6 2 10 4
10 3 0 8 -4 11 -10z m1145 0 c0 -5 -2 -10 -4 -10 -3 0 -8 5 -11 10 -3 6 -1 10
4 10 6 0 11 -4 11 -10z m-1170 -16 c0 -8 -4 -12 -10 -9 -5 3 -10 10 -10 16 0
5 5 9 10 9 6 0 10 -7 10 -16z m347 0 c8 -22 -15 -43 -27 -24 -5 8 -10 21 -10
28 0 17 30 15 37 -4z m-1109 -36 c3 -13 -3 -18 -22 -18 -20 0 -26 5 -26 21 0
15 5 20 22 17 13 -2 24 -11 26 -20z m-3555 6 c8 -8 -3 -34 -14 -34 -5 0 -9 9
-9 20 0 19 11 26 23 14z m569 -9 c0 -14 -29 -31 -38 -22 -9 8 16 39 28 35 5
-2 10 -8 10 -13z m-204 -28 c3 -14 -2 -17 -22 -14 -15 2 -26 6 -26 10 0 4 0
12 0 18 0 18 45 5 48 -14z m-1888 -12 c0 -8 -9 -15 -20 -15 -20 0 -26 11 -13
23 12 13 33 7 33 -8z m790 -19 c0 -60 -11 -97 -29 -94 -23 5 -25 32 -5 83 20
53 34 58 34 11z m5400 19 c0 -8 -6 -15 -14 -15 -8 0 -16 7 -20 15 -4 10 1 15
14 15 11 0 20 -7 20 -15z m-4394 -33 c-9 -9 -37 8 -31 18 5 8 11 7 21 -1 8 -6
12 -14 10 -17z m129 0 c-8 -8 -25 10 -19 20 4 6 9 5 15 -3 4 -7 6 -15 4 -17z
m-357 5 c6 -6 14 -25 17 -40 7 -25 5 -28 -13 -25 -12 2 -27 -5 -36 -17 -12
-17 -17 -18 -28 -7 -11 11 -8 17 14 37 23 20 25 25 13 35 -8 7 -12 16 -9 21 8
13 30 11 42 -4z m152 -17 c0 -13 -11 -25 -34 -34 -22 -9 -36 -23 -40 -40 -9
-37 -23 -32 -18 7 8 56 92 118 92 67z m3424 14 c9 -3 16 -12 16 -20 0 -8 6
-14 14 -14 17 0 21 -5 30 -42 5 -24 3 -28 -14 -28 -11 0 -20 6 -20 13 -1 16
-41 62 -64 70 -9 4 -14 11 -11 17 7 11 26 13 49 4z m186 -19 c0 -8 -4 -17 -10
-20 -16 -10 -29 3 -23 24 5 22 33 18 33 -4z m-3985 5 c-3 -5 -13 -10 -21 -10
-8 0 -14 5 -14 10 0 6 9 10 21 10 11 0 17 -4 14 -10z m4875 -32 c0 -5 -10 -8
-22 -6 -15 2 -24 11 -26 26 -4 23 -3 23 22 7 14 -10 26 -22 26 -27z m1026 20
c9 -15 11 -68 2 -68 -3 0 -21 12 -40 27 -18 15 -35 28 -37 29 -1 2 0 7 4 13 8
15 62 14 71 -1z m-5311 -18 c0 -15 -31 -37 -40 -28 -4 3 -1 16 5 28 12 22 35
23 35 0z m-635 -16 c0 -8 -10 -14 -25 -14 -29 0 -32 8 -8 26 20 14 33 10 33
-12z m-1200 -3 c0 -21 -51 -47 -75 -38 -19 8 -10 32 18 45 35 17 57 14 57 -7z
m1120 4 c0 -10 -10 -15 -29 -15 -19 0 -35 -8 -45 -22 -12 -17 -19 -19 -28 -10
-17 17 16 50 56 55 17 2 34 5 39 5 4 1 7 -5 7 -13z m5090 5 c0 -5 -5 -10 -11
-10 -5 0 -7 5 -4 10 3 6 8 10 11 10 2 0 4 -4 4 -10z m206 -1 c9 -15 -11 -33
-30 -26 -9 4 -13 13 -10 22 7 17 30 20 40 4z m-5100 -37 c-9 -9 -37 8 -31 18
5 8 11 7 21 -1 8 -6 12 -14 10 -17z m4849 -2 c5 -8 11 -7 20 0 20 17 33 4 41
-38 3 -20 14 -49 25 -64 15 -21 16 -28 5 -37 -10 -8 -16 -5 -24 15 -7 14 -12
36 -12 49 0 21 -6 25 -45 31 -51 7 -63 18 -45 39 15 18 26 19 35 5z m-695 -24
c0 -19 -14 -28 -34 -20 -25 10 -19 34 9 34 15 0 25 -6 25 -14z m-4485 -6 c4
-6 1 -18 -6 -26 -10 -12 -9 -17 6 -28 18 -13 18 -14 -3 -25 -11 -6 -30 -11
-42 -11 -19 0 -20 2 -6 29 9 16 13 31 9 34 -3 4 -3 13 0 22 7 17 33 20 42 5z
m4194 1 c19 -12 6 -41 -18 -41 -26 0 -36 17 -21 35 14 17 20 18 39 6z m1906
-32 c5 -5 1 -9 -12 -9 -29 0 -53 10 -53 22 0 12 50 2 65 -13z m-5795 -24 c0
-8 -4 -15 -10 -15 -5 0 -10 7 -10 15 0 8 5 15 10 15 6 0 10 -7 10 -15z m317
-1 c-3 -3 -12 -4 -19 -1 -8 3 -5 6 6 6 11 1 17 -2 13 -5z m273 -15 c0 -5 -4
-9 -10 -9 -5 0 -10 7 -10 16 0 8 5 12 10 9 6 -3 10 -10 10 -16z m-855 1 c3 -5
1 -10 -4 -10 -6 0 -11 5 -11 10 0 6 2 10 4 10 3 0 8 -4 11 -10z m-148 -46
c-16 -17 -31 -25 -42 -20 -22 8 -10 25 29 41 40 17 44 12 13 -21z m707 5 c-3
-5 -10 -7 -15 -3 -5 3 -7 10 -3 15 3 5 10 7 15 3 5 -3 7 -10 3 -15z m436 11
c12 -8 12 -10 -4 -16 -14 -5 -15 -9 -4 -15 20 -13 -10 -30 -42 -23 -63 14 -66
25 -12 47 46 19 44 19 62 7z m3491 -23 c-13 -13 -26 -3 -16 12 3 6 11 8 17 5
6 -4 6 -10 -1 -17z m-4311 3 c0 -5 -4 -10 -10 -10 -5 0 -10 5 -10 10 0 6 5 10
10 10 6 0 10 -4 10 -10z m215 0 c-3 -5 -13 -10 -21 -10 -8 0 -17 -7 -20 -15
-4 -8 -13 -15 -20 -15 -8 0 -24 -9 -36 -20 -26 -24 -34 -25 -41 -6 -6 16 41
69 54 61 4 -3 10 -1 14 5 3 5 22 10 41 10 21 0 33 -4 29 -10z m3890 -20 c3 -5
-1 -10 -9 -10 -9 0 -16 5 -16 10 0 6 4 10 9 10 6 0 13 -4 16 -10z m465 -64
c33 -36 21 -58 -24 -44 -30 10 -36 16 -36 40 0 36 27 38 60 4z m-3740 -36 c9
-17 8 -20 -10 -20 -13 0 -20 7 -20 20 0 11 4 20 10 20 5 0 14 -9 20 -20z
m-1004 -22 c-3 -13 -6 -26 -6 -30 0 -14 -28 -8 -34 7 -9 23 4 45 26 45 16 0
19 -5 14 -22z m5037 -17 c17 -17 -18 -23 -64 -11 -32 9 -39 14 -28 21 16 11
78 4 92 -10z m-4687 -58 c-11 -11 -19 6 -11 24 8 17 8 17 12 0 3 -10 2 -21 -1
-24z m4459 -3 c0 -27 -22 -39 -31 -16 -8 22 3 49 19 43 6 -2 12 -14 12 -27z
m1169 -79 c6 -10 -16 -61 -26 -61 -10 0 -10 54 -1 63 9 10 21 9 27 -2z m201
-17 c17 -2 41 -5 55 -7 20 -2 26 -8 28 -34 4 -37 -3 -41 -30 -16 -12 10 -39
17 -76 18 -49 2 -61 -1 -84 -23 -16 -14 -28 -32 -28 -39 0 -8 -10 -13 -29 -11
-15 1 -40 -6 -55 -16 -34 -21 -46 -18 -35 11 5 15 20 24 43 29 28 5 44 17 72
56 34 48 37 50 72 44 20 -4 51 -9 67 -12z m-7342 -116 c6 -38 -3 -51 -26 -42
-12 4 -15 13 -11 33 13 52 29 56 37 9z m106 -10 c20 -34 8 -63 -19 -48 -14 8
-20 21 -20 46 0 41 17 42 39 2z m7371 -7 c0 -5 -6 -11 -14 -14 -8 -3 -20 -18
-28 -34 -9 -19 -22 -29 -41 -31 -33 -4 -36 13 -5 29 13 7 31 23 41 36 18 23
47 32 47 14z m-388 -48 c14 -13 21 -14 30 -5 7 7 17 12 23 12 11 0 35 -41 35
-60 0 -17 -29 -11 -50 10 -16 16 -24 18 -52 8 -48 -16 -54 -24 -38 -53 7 -14
11 -28 8 -31 -10 -9 -46 19 -51 40 -3 12 -8 31 -12 43 -6 18 -1 25 26 37 45
19 59 19 81 -1z m-7042 -13 c0 -5 -7 -7 -15 -4 -8 4 -12 10 -9 15 6 11 24 2
24 -11z m6050 -7 c0 -20 -24 -11 -28 10 -2 12 1 15 12 11 9 -3 16 -13 16 -21z
m-120 -7 c0 -19 -44 -50 -48 -36 -4 12 26 50 40 50 4 0 8 -6 8 -14z m-4700
-15 c0 -11 9 -23 20 -26 14 -4 20 -15 20 -35 0 -16 2 -34 5 -42 3 -7 1 -19 -4
-27 -8 -12 -13 -12 -36 3 -34 23 -43 46 -21 58 16 9 16 11 1 28 -11 12 -14 26
-10 39 8 26 25 27 25 2z m306 -75 c-4 -15 -15 -34 -26 -43 -25 -21 -10 -33 43
-33 20 0 37 -4 37 -9 0 -5 2 -15 5 -23 3 -8 -14 -29 -40 -52 l-46 -38 6 35 c6
31 3 37 -29 62 -41 31 -44 45 -16 65 11 8 25 32 31 54 10 35 12 37 26 23 10
-10 13 -24 9 -41z m-1261 18 c0 -10 -8 -20 -17 -22 -18 -3 -26 27 -11 42 12
11 28 0 28 -20z m149 -28 c7 -25 6 -43 0 -54 -16 -24 -34 -26 -34 -3 0 11 -4
23 -10 26 -14 9 -13 48 2 63 19 19 32 9 42 -32z m931 -2 c24 -25 34 -64 18
-64 -25 1 -79 70 -66 84 12 11 24 6 48 -20z m-1019 -11 c-10 -10 -19 5 -10 18
6 11 8 11 12 0 2 -7 1 -15 -2 -18z m5884 -12 c0 -15 -30 -41 -46 -41 -17 0
-18 22 -2 38 14 14 48 16 48 3z m750 -5 c0 -7 -7 -19 -15 -26 -12 -10 -18 -10
-30 0 -25 21 -18 40 15 40 19 0 30 -5 30 -14z m415 4 c-3 -5 -10 -10 -16 -10
-5 0 -9 5 -9 10 0 6 7 10 16 10 8 0 12 -4 9 -10z m-121 -6 c21 -8 20 -30 -1
-38 -21 -8 -38 8 -30 28 7 18 9 18 31 10z m-7534 -39 c0 -23 -18 -27 -29 -6
-18 32 -14 43 9 31 11 -6 20 -17 20 -25z m1494 -4 c33 -35 34 -86 1 -86 -14 0
-24 13 -37 48 -27 71 -11 87 36 38z m6282 4 c23 -21 17 -45 -12 -45 -8 0 -14
-7 -14 -15 0 -8 -4 -15 -10 -15 -5 0 -10 9 -10 20 0 11 -3 20 -6 20 -12 0 -64
-34 -64 -42 0 -4 -8 -8 -19 -8 -13 0 -20 9 -23 30 -3 20 0 30 8 30 7 0 25 11
39 24 31 29 78 30 111 1z m-6998 -38 c2 -21 -1 -37 -7 -37 -6 0 -11 8 -11 18
0 10 -5 23 -11 29 -6 6 -8 16 -4 23 13 21 30 4 33 -33z m586 13 c23 -23 27
-33 18 -42 -17 -17 -82 15 -82 41 0 17 11 28 30 30 3 0 18 -13 34 -29z m6077
-13 c-6 -16 -18 -27 -30 -27 -10 0 -22 -7 -25 -16 -8 -21 -60 -15 -64 9 -3 12
3 17 20 17 13 0 39 13 58 29 39 33 56 28 41 -12z m-7001 8 c0 -18 28 -65 49
-81 20 -15 -1 -26 -34 -18 -16 4 -25 13 -25 25 0 11 -7 22 -15 25 -9 4 -15 19
-15 35 0 22 5 29 20 29 11 0 20 -7 20 -15z m250 -14 c0 -11 -45 -41 -60 -41
-19 0 -5 24 21 37 29 15 39 16 39 4z m-390 -10 c0 -12 -20 -25 -27 -18 -7 7 6
27 18 27 5 0 9 -4 9 -9z m7790 -50 c0 -16 -7 -34 -15 -41 -8 -7 -15 -18 -15
-26 0 -22 -41 -84 -56 -84 -16 0 -19 -26 -4 -35 17 -11 11 -35 -11 -44 -12 -4
-27 -22 -33 -42 -7 -20 -19 -35 -30 -37 -11 -2 -26 -10 -34 -18 -13 -14 -32
-19 -32 -9 0 16 36 93 51 110 10 11 34 52 54 90 49 98 61 111 80 95 13 -11 15
-8 15 22 0 19 3 38 7 41 14 15 23 6 23 -22z m-7910 11 c0 -9 21 -20 77 -43 27
-11 32 -20 38 -57 4 -25 9 -51 12 -59 4 -11 0 -14 -18 -11 -18 2 -25 10 -27
33 -4 37 -12 46 -46 49 -15 2 -37 13 -50 25 -12 11 -29 21 -37 21 -12 0 -12 2
1 10 8 5 16 14 16 20 3 19 4 20 19 20 8 0 15 -4 15 -8z m652 -25 c41 -32 43
-35 41 -83 -6 -135 -7 -139 -36 -142 -20 -3 -27 1 -27 14 0 9 6 22 14 28 14
11 19 45 17 112 -1 25 -9 37 -41 58 -23 15 -38 31 -35 36 10 16 21 12 67 -23z
m5372 18 c4 -10 -1 -15 -15 -15 -11 0 -22 -8 -25 -17 -18 -55 -28 -73 -41 -73
-8 0 -23 -10 -33 -23 -18 -22 -151 -107 -168 -107 -5 0 -15 7 -22 16 -18 21
-6 31 105 89 50 26 93 52 97 59 18 28 74 86 84 86 7 0 14 -7 18 -15z m-306
-17 c-5 -15 -48 -24 -48 -10 0 14 12 22 33 22 10 0 17 -5 15 -12z m586 -17
c29 -11 4 -22 -33 -15 -17 4 -34 11 -37 15 -6 11 43 11 70 0z m-4804 -22 c0
-17 -20 -49 -30 -49 -14 0 -12 34 2 48 15 15 28 15 28 1z m4653 -10 l21 -12
-24 -9 c-26 -9 -47 3 -36 21 9 14 12 14 39 0z m777 -3 c0 -23 -27 -38 -62 -34
-38 4 -41 18 -7 35 32 17 69 16 69 -1z m572 4 c2 -5 32 -11 68 -13 47 -3 65
-8 65 -18 0 -10 -15 -15 -52 -17 -45 -3 -52 -6 -57 -27 -4 -16 -14 -25 -26
-25 -20 0 -20 0 0 35 l20 35 -30 0 c-23 0 -30 -4 -30 -20 0 -26 -29 -38 -41
-17 -7 12 -15 13 -42 5 -17 -6 -37 -12 -43 -13 -5 -2 -16 -21 -22 -44 -7 -22
-21 -45 -32 -51 -11 -6 -17 -16 -14 -25 9 -21 -13 -18 -36 5 -24 24 -25 29 -3
45 9 7 24 32 33 56 15 38 22 45 56 52 22 4 53 6 69 4 20 -3 41 3 65 19 38 27
47 29 52 14z m-6682 -14 c0 -3 -4 -8 -10 -11 -5 -3 -10 -1 -10 4 0 6 5 11 10
11 6 0 10 -2 10 -4z m5224 -31 c-6 -14 -42 -31 -50 -22 -9 8 8 36 24 40 23 5
32 -1 26 -18z m-5684 1 c0 -8 -5 -18 -10 -21 -13 -8 -42 14 -34 26 9 15 44 10
44 -5z m7735 5 c7 -12 -12 -24 -25 -16 -11 7 -4 25 10 25 5 0 11 -4 15 -9z
m-895 -11 c0 -5 -4 -10 -10 -10 -5 0 -10 5 -10 10 0 6 5 10 10 10 6 0 10 -4
10 -10z m800 -12 c0 -16 -3 -19 -11 -11 -6 6 -8 16 -5 22 11 17 16 13 16 -11z
m-5960 -8 c0 -21 -24 -28 -35 -10 -8 14 3 30 21 30 8 0 14 -9 14 -20z m-2435
0 c3 -5 1 -10 -4 -10 -6 0 -11 5 -11 10 0 6 2 10 4 10 3 0 8 -4 11 -10z m7345
-5 c0 -8 -4 -15 -10 -15 -5 0 -10 7 -10 15 0 8 5 15 10 15 6 0 10 -7 10 -15z
m-7280 -29 c-13 -13 -35 7 -25 24 5 8 11 8 21 -1 10 -8 12 -15 4 -23z m887 2
c-3 -8 -6 -5 -6 6 -1 11 2 17 5 13 3 -3 4 -12 1 -19z m1743 1 c0 -5 -9 -9 -20
-9 -19 0 -26 11 -14 23 8 8 34 -3 34 -14z m5565 -19 c-16 -18 -35 -19 -35 -1
0 9 43 31 49 25 2 -2 -4 -13 -14 -24z m-7390 6 c18 -4 105 -95 105 -111 0 -24
-14 -18 -33 14 -10 16 -27 31 -40 33 -14 2 -23 11 -25 25 -2 13 -12 23 -24 25
-12 2 -24 9 -26 17 -3 10 0 12 14 7 11 -5 24 -9 29 -10z m983 -20 c3 -20 0
-27 -10 -24 -7 3 -14 17 -16 32 -3 20 0 27 10 24 7 -3 14 -17 16 -32z m5452
10 c0 -33 -9 -36 -50 -15 -37 18 -28 27 43 38 4 0 7 -10 7 -23z m-7309 -18
c14 -22 10 -29 -10 -18 -11 5 -31 10 -45 10 -19 0 -26 5 -26 19 0 17 4 18 36
11 21 -5 41 -15 45 -22z m545 -36 c8 -39 -12 -45 -22 -7 -5 19 -11 24 -24 20
-25 -8 -36 26 -13 42 14 11 20 10 35 -4 10 -10 20 -33 24 -51z m-664 36 c-7
-7 -12 -8 -12 -2 0 14 12 26 19 19 2 -3 -1 -11 -7 -17z m8578 12 c0 -5 -5 -10
-11 -10 -5 0 -7 5 -4 10 3 6 8 10 11 10 2 0 4 -4 4 -10z m-8400 -10 c0 -5 -4
-10 -9 -10 -6 0 -13 5 -16 10 -3 6 1 10 9 10 9 0 16 -4 16 -10z m635 -22 c6
-13 20 -27 33 -33 23 -10 29 -29 12 -40 -5 -3 -10 -15 -10 -25 0 -11 -8 -29
-17 -40 -17 -20 -17 -20 -45 7 -33 31 -36 47 -8 38 11 -3 20 -4 20 0 0 13 -29
62 -44 74 -21 17 -20 28 2 34 36 10 48 6 57 -15z m83 -6 c3 -9 -2 -13 -14 -10
-9 1 -19 9 -22 16 -3 9 2 13 14 10 9 -1 19 -9 22 -16z m7256 -27 c19 -14 19
-15 0 -50 -16 -31 -23 -35 -57 -35 -27 0 -37 4 -34 13 2 6 14 11 26 10 20 -3
26 6 22 36 -3 18 7 41 16 41 4 0 17 -7 27 -15z m509 3 c5 -16 -12 -68 -23 -68
-4 0 -13 7 -20 15 -10 12 -10 21 -2 40 12 26 37 33 45 13z m-8306 -20 c15 -17
18 -30 12 -48 -4 -14 -7 -18 -8 -9 -1 12 -15 18 -51 23 -50 7 -62 20 -38 44
19 19 63 14 85 -10z m5663 15 c0 -12 -43 -53 -57 -53 -16 0 -17 32 -1 48 13
13 58 17 58 5z m-5395 -17 c34 -15 35 -16 33 -67 -2 -33 -7 -53 -16 -57 -21
-8 -33 19 -27 59 5 31 3 37 -19 47 -26 11 -36 32 -16 32 6 0 26 -7 45 -14z
m8155 -22 c7 -19 6 -31 -4 -45 -13 -18 -15 -19 -30 -4 -20 21 -20 39 0 59 21
21 23 20 34 -10z m-8626 8 c3 -5 -4 -21 -15 -38 -10 -16 -19 -37 -19 -47 0
-10 -7 -20 -15 -23 -8 -4 -15 -15 -15 -26 0 -11 -5 -16 -11 -13 -6 4 -9 23 -7
43 3 34 1 37 -27 42 -17 3 -31 12 -33 22 -4 22 32 41 66 34 15 -3 34 -2 42 4
18 12 27 12 34 2z m8301 -22 c3 -5 2 -10 -4 -10 -6 0 -11 -19 -11 -42 0 -24
-1 -66 -2 -94 -1 -28 3 -57 7 -64 5 -8 1 -18 -10 -27 -23 -16 -45 -17 -46 0
-3 34 4 73 18 93 11 17 12 28 4 43 -12 22 -15 94 -4 104 10 10 41 8 48 -3z
m-8035 -26 c0 -22 4 -25 27 -22 31 3 43 -22 23 -47 -9 -11 -16 -11 -44 6 -28
16 -32 23 -28 54 5 40 22 48 22 9z m8460 -36 c0 -11 -7 -18 -19 -18 -22 0 -29
15 -23 48 4 22 5 22 23 6 11 -9 19 -25 19 -36z m-5990 27 c0 -8 -7 -15 -15
-15 -16 0 -20 12 -8 23 11 12 23 8 23 -8z m2765 5 c3 -5 1 -10 -4 -10 -6 0
-11 5 -11 10 0 6 2 10 4 10 3 0 8 -4 11 -10z m-5435 -20 c0 -11 7 -20 15 -20
22 0 42 -47 27 -62 -9 -9 -8 -16 4 -29 10 -11 14 -26 10 -35 -6 -15 -9 -15
-31 6 -16 15 -22 27 -16 34 6 7 4 21 -4 36 -8 14 -14 33 -15 43 0 10 -7 20
-15 23 -22 9 -18 24 5 24 13 0 20 -7 20 -20z m7870 -10 c0 -5 -5 -10 -11 -12
-7 -2 -14 -19 -16 -38 -4 -41 -16 -55 -38 -47 -25 10 -29 35 -11 76 15 33 21
37 47 33 16 -2 29 -8 29 -12z m-4790 -11 c0 -11 -4 -17 -10 -14 -5 3 -10 13
-10 21 0 8 5 14 10 14 6 0 10 -9 10 -21z m137 5 c3 -9 0 -20 -8 -25 -21 -13
-29 -11 -29 9 0 33 26 44 37 16z m-3402 -4 c8 -13 -4 -50 -16 -50 -5 0 -9 14
-9 30 0 30 13 40 25 20z m715 0 c0 -5 -4 -10 -10 -10 -5 0 -10 5 -10 10 0 6 5
10 10 10 6 0 10 -4 10 -10z m3356 -17 c-10 -10 -19 5 -10 18 6 11 8 11 12 0 2
-7 1 -15 -2 -18z m-3778 -1 c3 -9 -2 -13 -14 -10 -9 1 -19 9 -22 16 -3 9 2 13
14 10 9 -1 19 -9 22 -16z m2452 3 c8 -10 10 -29 6 -54 -4 -28 -2 -42 9 -51 8
-7 15 -16 15 -21 0 -18 -27 -8 -53 19 -24 25 -26 32 -17 61 5 18 9 36 8 40 -3
25 14 28 32 6z m5200 -6 c0 -4 -10 -15 -22 -23 -28 -20 -53 -4 -36 23 11 18
58 18 58 0z m845 1 c9 -15 -12 -48 -36 -55 -29 -9 -34 0 -19 35 12 29 42 41
55 20z m-658 -21 c-4 -15 1 -27 15 -39 25 -20 19 -50 -10 -50 -11 0 -31 -9
-45 -20 -14 -11 -28 -20 -31 -20 -3 0 -6 9 -6 20 0 11 7 20 15 20 18 0 38 37
31 57 -9 23 3 53 21 53 11 0 14 -6 10 -21z m-2361 -11 c4 -6 -4 -19 -19 -30
-15 -11 -41 -46 -58 -79 -25 -47 -39 -61 -60 -66 -16 -3 -31 -13 -34 -22 -12
-35 -54 -71 -84 -71 -40 0 -50 20 -20 39 49 33 91 75 110 113 11 21 26 38 34
38 8 0 34 20 58 45 46 47 61 53 73 33z m-5296 -68 c8 -9 31 -23 50 -30 55 -21
140 -78 140 -94 0 -9 14 -18 35 -22 43 -8 41 -25 -3 -30 -22 -3 -35 1 -38 11
-4 8 -13 15 -21 15 -8 0 -35 14 -60 30 -24 17 -46 30 -49 30 -2 0 -2 -11 2
-25 9 -37 -8 -30 -42 15 -16 23 -43 47 -61 55 -20 8 -35 23 -39 39 -3 14 -10
26 -15 26 -5 0 -9 6 -9 14 0 13 7 13 48 -1 26 -9 54 -23 62 -33z m3610 31 c0
-24 -18 -37 -31 -24 -13 13 -1 43 17 43 8 0 14 -9 14 -19z m4140 0 c0 -22 -25
-45 -40 -36 -14 9 -13 21 6 39 21 21 34 20 34 -3z m-8424 -39 c-12 -11 -18 7
-10 30 l8 23 4 -23 c2 -13 1 -26 -2 -30z m1134 22 c13 -34 13 -44 -4 -44 -15
0 -39 54 -29 64 12 12 24 5 33 -20z m2030 7 c0 -20 -17 -37 -27 -28 -7 8 7 47
18 47 5 0 9 -9 9 -19z m1580 -35 c0 -33 -16 -42 -29 -17 -16 29 -13 41 9 41
15 0 20 -7 20 -24z m-4406 -2 c23 -9 20 -34 -3 -34 -22 0 -35 15 -26 30 7 12
8 12 29 4z m8124 -38 c2 -9 1 -24 -3 -33 -9 -26 -36 6 -28 35 6 26 26 24 31
-2z m-3408 -31 c-9 -26 -44 -26 -48 -1 -5 26 25 49 43 33 8 -7 10 -20 5 -32z
m3030 35 c0 -12 -28 -25 -36 -17 -9 9 6 27 22 27 8 0 14 -5 14 -10z m45 -9 c3
-5 1 -12 -5 -16 -5 -3 -10 1 -10 9 0 18 6 21 15 7z m115 -26 c7 -8 20 -15 30
-15 9 0 25 -9 35 -20 10 -11 25 -20 34 -20 14 -1 14 -2 -1 -10 -9 -6 -27 -9
-39 -8 -17 2 -24 -3 -29 -21 -7 -29 -35 -50 -48 -36 -5 6 -12 40 -15 78 -5 52
-3 67 7 67 8 0 19 -7 26 -15z m-101 -31 c-6 -8 -14 -28 -18 -46 -9 -43 -31
-49 -31 -8 0 36 29 80 48 73 9 -4 10 -9 1 -19z m541 6 c0 -5 -4 -10 -9 -10 -6
0 -13 5 -16 10 -3 6 1 10 9 10 9 0 16 -4 16 -10z m15 -50 c10 -17 -14 -38 -36
-33 -30 8 -33 22 -7 32 31 13 36 13 43 1z m-371 -36 c22 -9 10 -24 -20 -24
-25 0 -33 15 -11 23 6 3 13 6 14 6 1 1 8 -2 17 -5z m-8090 -50 c8 -29 -5 -50
-23 -40 -6 4 -11 20 -11 37 0 37 25 39 34 3z m5199 6 c3 -11 1 -23 -4 -26 -5
-3 -9 6 -9 20 0 31 6 34 13 6z m-5143 -16 c0 -8 -4 -12 -10 -9 -5 3 -10 10
-10 16 0 5 5 9 10 9 6 0 10 -7 10 -16z m490 -3 c0 -5 -7 -11 -15 -15 -15 -5
-20 5 -8 17 9 10 23 9 23 -2z m15 -91 c-5 -8 -11 -8 -17 -2 -6 6 -7 16 -3 22
5 8 11 8 17 2 6 -6 7 -16 3 -22z m7689 15 c11 -30 -4 -46 -38 -39 -40 8 -40 8
-26 33 13 24 55 28 64 6z m-7850 -30 c34 -34 -10 -60 -50 -30 -19 15 -19 15 0
30 25 19 31 19 50 0z m-25 -124 c12 -8 12 -12 2 -25 -17 -20 -41 -20 -67 -1
-16 13 -17 16 -4 25 19 12 50 13 69 1z m-125 -30 c18 -8 23 -15 19 -30 -6 -25
-30 -27 -55 -4 -37 34 -17 53 36 34z m81 -71 c3 -5 -6 -17 -21 -27 -25 -16
-27 -16 -40 2 -7 10 -11 22 -8 26 7 12 61 11 69 -1z"/>
<path d="M6616 8380 c-22 -55 -21 -106 3 -122 18 -13 21 -18 21 -37 0 -12 35
-24 80 -27 19 -1 59 -4 88 -6 55 -4 91 10 78 30 -4 7 -16 12 -26 12 -13 0 -18
5 -13 16 7 18 -29 59 -69 80 -16 8 -28 19 -28 25 0 20 -64 69 -91 69 -22 0
-30 -7 -43 -40z"/>
<path d="M3774 7526 c-4 -9 1 -25 10 -35 9 -10 16 -25 16 -33 0 -9 7 -22 16
-29 15 -12 16 -11 11 6 -3 11 -8 34 -12 52 -8 40 -32 63 -41 39z"/>
<path d="M2193 7131 c-3 -12 -11 -21 -18 -21 -19 0 -85 -67 -85 -85 0 -8 -6
-15 -13 -15 -24 0 -77 -64 -77 -93 0 -23 7 -31 37 -43 67 -28 98 -29 124 -3
13 13 27 23 31 22 12 -4 37 40 37 62 -1 11 2 54 5 95 5 69 4 76 -15 88 -18 12
-21 11 -26 -7z"/>
<path d="M7220 6628 c-31 -15 -40 -23 -27 -26 26 -5 87 18 87 34 0 18 -6 17
-60 -8z"/>
<path d="M7182 3848 c2 -5 6 -8 10 -6 3 2 14 -4 24 -13 26 -22 52 -30 60 -18
9 16 -6 27 -54 37 -28 7 -42 7 -40 0z"/>
<path d="M2060 3586 c-51 -16 -60 -24 -60 -54 1 -30 51 -92 74 -92 8 0 17 -8
21 -19 3 -10 29 -40 57 -66 73 -67 84 -58 80 66 -2 93 -17 139 -45 139 -7 0
-18 9 -25 20 -14 22 -47 25 -102 6z"/>
<path d="M3797 2983 c-17 -35 -24 -60 -18 -66 5 -5 13 -7 18 -4 10 6 38 116
31 122 -2 2 -16 -21 -31 -52z"/>
<path d="M6754 2258 c-3 -5 -20 -8 -38 -7 -37 3 -76 -8 -76 -23 0 -5 -11 -23
-24 -39 -22 -25 -23 -33 -14 -71 13 -59 34 -88 62 -88 26 0 86 47 86 67 0 7
10 18 23 24 31 17 77 62 77 75 0 6 9 18 20 25 32 23 10 41 -54 44 -31 1 -59
-2 -62 -7z"/>
<path d="M8220 8990 c20 -13 33 -13 25 0 -3 6 -14 10 -23 10 -15 0 -15 -2 -2
-10z"/>
<path d="M1841 7724 c0 -11 3 -14 6 -6 3 7 2 16 -1 19 -3 4 -6 -2 -5 -13z"/>
<path d="M6676 7545 c-9 -24 -8 -25 15 -25 14 0 19 5 17 17 -4 23 -24 27 -32
8z"/>
<path d="M2875 6966 c-19 -14 -19 -16 -3 -32 22 -23 35 -15 28 19 -5 26 -6 27
-25 13z"/>
<path d="M2880 3526 c-13 -16 -7 -46 9 -46 12 0 22 43 12 53 -4 4 -14 1 -21
-7z"/>
<path d="M2990 3279 c0 -5 5 -7 10 -4 6 3 10 8 10 11 0 2 -4 4 -10 4 -5 0 -10
-5 -10 -11z"/>
<path d="M1046 10009 c-10 -6 -27 -20 -38 -31 -15 -15 -28 -19 -50 -14 -43 8
-78 -3 -78 -25 0 -10 -18 -36 -40 -58 -22 -22 -40 -47 -40 -55 0 -18 31 -21
47 -5 19 19 53 1 54 -29 l1 -27 10 28 c7 21 16 27 39 27 16 0 31 6 33 13 2 6
9 32 16 56 7 28 18 45 31 48 10 3 19 11 19 17 0 6 9 19 20 29 12 10 18 22 15
27 -8 13 -15 12 -39 -1z"/>
<path d="M814 9976 c-3 -9 -12 -16 -19 -16 -6 0 -27 -15 -46 -32 l-34 -33 29
-3 c23 -3 35 4 57 29 24 28 28 30 32 13 3 -12 5 -7 6 13 1 35 -15 54 -25 29z"/>
<path d="M9230 9810 c0 -13 20 -13 40 0 12 8 9 10 -12 10 -16 0 -28 -4 -28
-10z"/>
<path d="M502 9679 c-106 -105 -130 -134 -121 -145 19 -24 3 -44 -29 -38 -42
8 -76 -36 -67 -86 11 -62 65 -118 65 -67 0 14 -10 31 -22 40 l-23 16 28 26
c15 14 37 25 47 25 10 0 23 7 28 17 7 11 15 14 28 8 13 -5 15 -9 7 -12 -7 -3
-13 -13 -13 -23 0 -10 -9 -25 -19 -32 -16 -11 -18 -23 -15 -77 4 -73 10 -82
42 -70 16 6 22 16 22 39 0 34 0 33 33 21 18 -7 30 -5 46 5 28 20 27 32 -4 40
-31 8 -27 30 4 27 25 -3 27 9 5 42 -13 20 -14 31 -6 55 6 16 7 30 2 30 -16 0
-22 41 -7 53 12 10 39 73 61 140 3 9 14 17 25 17 26 0 52 41 39 63 -5 9 -12
17 -16 17 -4 0 -67 -59 -140 -131z m-15 -221 c-3 -8 -6 -5 -6 6 -1 11 2 17 5
13 3 -3 4 -12 1 -19z m7 -67 c3 -5 -3 -20 -13 -32 -18 -22 -20 -22 -26 -6 -11
27 25 62 39 38z"/>
<path d="M9631 9688 c2 -40 62 -113 85 -104 15 6 14 9 -1 34 -23 35 -66 82
-77 82 -4 0 -8 -6 -7 -12z"/>
<path d="M9557 9614 c-3 -4 -2 -15 4 -26 6 -11 7 -31 3 -46 -4 -15 -6 -31 -4
-37 1 -5 4 -20 5 -32 4 -31 14 -43 34 -43 33 0 81 -22 81 -36 0 -8 8 -18 17
-21 9 -4 25 -15 35 -25 24 -24 42 -14 27 15 -6 12 -20 31 -30 42 -11 13 -19
39 -21 75 -3 53 -4 55 -37 66 -18 6 -38 19 -44 30 -19 34 -54 53 -70 38z"/>
<path d="M8570 9585 c-9 -11 -9 -22 1 -50 19 -52 43 -43 47 18 3 41 1 47 -16
47 -11 0 -25 -7 -32 -15z"/>
<path d="M597 9524 c-3 -16 -1 -33 3 -38 14 -14 22 17 12 44 -9 24 -9 24 -15
-6z"/>
<path d="M8486 9501 c-4 -7 -5 -15 -2 -18 9 -9 19 4 14 18 -4 11 -6 11 -12 0z"/>
<path d="M8575 9443 c10 -56 13 -63 30 -63 16 0 21 25 6 34 -4 3 -11 19 -14
36 -9 45 -29 38 -22 -7z"/>
<path d="M9830 9319 c0 -5 5 -7 10 -4 6 3 10 8 10 11 0 2 -4 4 -10 4 -5 0 -10
-5 -10 -11z"/>
<path d="M826 8883 c-12 -12 -6 -50 9 -63 13 -11 22 -9 51 6 42 23 42 49 -1
49 -17 0 -35 3 -41 7 -6 4 -14 5 -18 1z"/>
<path d="M922 8739 c2 -7 10 -15 17 -17 8 -3 12 1 9 9 -2 7 -10 15 -17 17 -8
3 -12 -1 -9 -9z"/>
<path d="M9317 3603 c-4 -3 -7 -13 -7 -22 1 -13 3 -13 11 2 11 19 8 33 -4 20z"/>
<path d="M950 1616 c0 -9 7 -16 16 -16 17 0 14 22 -4 28 -7 2 -12 -3 -12 -12z"/>
<path d="M1057 1623 c-12 -11 -8 -23 8 -23 8 0 15 7 15 15 0 16 -12 20 -23 8z"/>
<path d="M832 1598 c-21 -21 -13 -27 35 -25 37 2 49 6 51 20 3 14 -4 17 -35
17 -22 0 -44 -5 -51 -12z"/>
<path d="M778 1562 c-4 -12 0 -23 8 -26 20 -8 25 8 10 29 -12 17 -13 17 -18
-3z"/>
<path d="M405 1178 c-15 -58 -12 -113 6 -128 25 -21 29 -73 7 -78 -11 -2 -18
3 -18 11 0 8 -12 18 -27 22 -16 3 -40 18 -55 32 -25 24 -28 25 -34 8 -5 -11 0
-33 12 -54 17 -31 24 -36 56 -36 46 -1 57 -11 32 -29 -10 -8 -17 -17 -14 -20
59 -64 265 -266 272 -266 15 0 21 31 10 55 -6 14 -23 27 -37 31 -14 3 -25 12
-25 20 0 8 -4 23 -10 34 -5 11 -14 29 -20 40 -5 10 -7 26 -4 35 5 11 0 18 -15
22 -24 6 -29 41 -7 49 10 4 12 16 9 45 -4 23 -1 45 7 53 14 18 4 38 -17 34 -9
-2 -18 3 -20 10 -3 7 4 12 16 12 26 0 33 13 18 34 -13 18 -42 23 -69 11 -15
-6 -18 -2 -18 20 0 25 -23 54 -42 55 -4 0 -10 -10 -13 -22z m87 -120 c-17 -17
-47 14 -38 38 6 16 8 16 29 -4 17 -17 19 -24 9 -34z m-2 -68 c0 -5 -5 -10 -11
-10 -5 0 -7 5 -4 10 3 6 8 10 11 10 2 0 4 -4 4 -10z"/>
<path d="M314 1105 c-20 -30 -16 -36 14 -28 15 3 22 13 22 29 0 31 -15 31 -36
-1z"/>
<path d="M9728 1102 c-7 -10 -21 -21 -30 -25 -10 -3 -18 -13 -18 -21 0 -14
-48 -36 -81 -36 -26 0 -29 -10 -34 -105 -5 -100 5 -108 56 -46 19 25 41 41 58
43 24 3 26 7 31 67 3 39 10 66 18 69 11 3 42 52 42 67 0 13 -30 3 -42 -13z"/>
<path d="M8472 968 c5 -15 28 -23 28 -10 0 5 -7 13 -16 16 -10 4 -14 1 -12 -6z"/>
<path d="M590 918 c0 -48 16 -42 26 10 5 25 3 32 -10 32 -12 0 -16 -10 -16
-42z"/>
<path d="M8580 930 c0 -10 -8 -23 -17 -29 -17 -9 -16 -11 2 -31 10 -11 28 -20
39 -18 18 3 20 9 18 43 -2 22 -6 43 -9 48 -9 15 -33 6 -33 -13z"/>
<path d="M9670 838 c-30 -38 -42 -66 -34 -80 7 -11 64 40 64 58 0 6 7 17 15
24 16 13 11 30 -8 29 -7 0 -23 -14 -37 -31z"/>
<path d="M9231 663 c-1 -32 1 -33 37 -33 27 0 33 3 22 10 -8 5 -23 10 -32 10
-9 0 -19 10 -21 23 -3 16 -5 13 -6 -10z"/>
<path d="M9498 683 c-10 -2 -21 -18 -26 -35 -6 -25 -14 -31 -40 -34 -18 -2
-43 -11 -57 -20 -13 -9 -29 -13 -34 -10 -6 4 -15 -3 -21 -14 -8 -16 -17 -19
-33 -14 -12 4 -25 11 -29 17 -4 7 -11 7 -22 -2 -12 -11 -21 -10 -47 3 -41 21
-49 20 -49 -3 0 -28 -20 -37 -27 -12 -3 12 -13 21 -23 21 -22 0 -34 -32 -26
-66 6 -21 3 -24 -24 -24 -19 0 -30 -5 -30 -14 0 -8 -6 -16 -12 -19 -30 -11 13
-29 73 -31 56 -3 66 0 82 20 11 14 24 21 33 17 9 -3 20 0 25 8 6 10 9 7 9 -12
0 -15 -7 -29 -15 -33 -8 -3 -15 -15 -15 -26 0 -12 -12 -32 -26 -45 -32 -30
-23 -49 19 -41 39 8 71 44 56 62 -8 10 -6 20 10 40 20 25 21 25 21 5 0 -11 6
-21 13 -21 19 0 267 253 267 273 0 17 -15 20 -52 10z m-364 -162 c10 -15 -5
-41 -23 -41 -28 0 -33 12 -13 31 20 20 28 23 36 10z m77 -14 c-13 -13 -26 -3
-16 12 3 6 11 8 17 5 6 -4 6 -10 -1 -17z"/>
<path d="M903 647 c5 -13 1 -17 -16 -18 -12 -1 -26 0 -32 1 -69 18 -73 1 -15
-60 22 -23 40 -48 40 -55 0 -22 37 -37 74 -30 28 6 39 2 68 -24 20 -17 43 -31
52 -31 23 0 20 27 -4 40 -11 6 -20 17 -20 25 0 8 -8 15 -18 15 -13 0 -21 13
-31 48 -7 26 -15 53 -17 61 -2 8 -12 11 -23 8 -12 -3 -29 4 -42 16 -18 17 -21
18 -16 4z"/>
<path d="M720 563 c0 -18 95 -103 115 -103 3 0 5 12 5 26 0 22 -2 25 -15 14
-12 -10 -15 -10 -15 3 0 23 -32 55 -62 63 -16 3 -28 2 -28 -3z"/>
<path d="M9060 375 c0 -10 54 -54 61 -49 10 6 0 36 -15 46 -12 8 -46 11 -46 3z"/>
<path d="M1090 354 c0 -14 3 -14 15 -4 8 7 15 14 15 16 0 2 -7 4 -15 4 -8 0
-15 -7 -15 -16z"/>
</g>
</svg>
